<?xml version="1.0" encoding="utf-8"?>
<!-- Generator: Adobe Illustrator 20.0.0, SVG Export Plug-In . SVG Version: 6.00 Build 0)  -->
<svg version="1.1" id="Layer_1" xmlns="http://www.w3.org/2000/svg" xmlns:xlink="http://www.w3.org/1999/xlink" x="0px" y="0px"
	 viewBox="0 0 504.7 286.3" style="enable-background:new 0 0 504.7 286.3;" xml:space="preserve">
<style type="text/css">
	.st0{fill:#A0A0A0;}
	.st1{font-family:'SegoeUI-Light';}
	.st2{font-size:130px;}
	.st3{fill:none;stroke:#A5A5A5;stroke-width:10;stroke-miterlimit:10;}
	.st4{fill:none;stroke:#00CE13;stroke-width:10;stroke-miterlimit:10;}
	.st5{fill:#A5A5A5;}
	.st6{font-family:'SegoeUI-Semibold';}
	.st7{font-size:69.7972px;}
</style>
<g>
	<path class="st0" d="M82.8,80.1c4.4,4.5,8.8,9,13.2,13.5c-12.1,15.6-40.9,16.5-57.3,1.6c-18.1-16.4-18.6-44.6-1.1-61.3
		c16.9-16.1,44.6-15.8,58.5,0.7C91.6,39,87.2,43.5,82.7,48c-13-8.1-24.4-7.7-32.3,1.2c-7.3,8.2-7.4,21-0.3,29.3
		C58.3,87.9,69,88.5,82.8,80.1z"/>
	<path class="st0" d="M0,22.3c6.8,0,12.9,0,19.6,0c0.1,1.8,0.4,3.6,0.4,5.3c0,24.3-0.1,48.6,0.1,72.9c0,4.3-1.1,6.1-5.6,5.7
		c-3.6-0.3-7.3,0.2-11-0.2c-1.3-0.1-3.3-1.8-3.4-2.8C0,76.3,0,49.6,0,22.3z"/>
	<text transform="matrix(1 0 0 1 187.1854 98.1384)" class="st0 st1 st2">marks</text>
	<path class="st0" d="M96.7,63c-0.1-22.7,18.7-41.7,41.5-41.8c23.3-0.1,42.1,18.5,42.3,42.1c0.2,22.9-18.8,42.1-41.8,42.1
		C115.5,105.4,96.9,86.6,96.7,63z M128.1,49.8l-23.6,3.4l17.1,16.7l-4,23.5l21.1-11.1l21.1,11.1l-4-23.5l17.1-16.7l-23.6-3.4
		l-10.6-21.4L128.1,49.8z"/>
</g>
<g>
	<g>
		<path class="st3" d="M218.7,139.4c10.1-5.2,21.6-8.1,33.7-8.1"/>
		<path class="st4" d="M252.4,131.3c40.9,0,74,33.1,74,74s-33.1,74-74,74s-74-33.1-74-74c0-28.7,16.4-53.6,40.3-65.9"/>
	</g>
	<text transform="matrix(1 0 0 1 207.4969 231.0101)" class="st5 st6 st7">9.6</text>
</g>
</svg>
