<svg id="Layer_1" data-name="Layer 1" xmlns="http://www.w3.org/2000/svg" xmlns:xlink="http://www.w3.org/1999/xlink" viewBox="0 0 250.6 71.4"><defs><style>.cls-1{fill:url(#linear-gradient);}.cls-2,.cls-3{fill:#fff;}.cls-3{font-size:48.94px;font-family:'Open Sans','Helvetica Neue',Arial,sans-serif;font-weight:700;line-height: 2;}.cls-4{letter-spacing:0em;line-height: 2;}</style><linearGradient id="linear-gradient" x1="10.46" y1="10.46" x2="60.98" y2="60.98" gradientUnits="userSpaceOnUse"><stop offset="0" stop-color="#9766ff"/><stop offset="1" stop-color="#6c58ff"/></linearGradient></defs><title>icon</title><circle class="cls-1" cx="35.7" cy="35.7" r="35.7"/><path class="cls-2" d="M23,28.4a14.7,14.7,0,0,1,24.9-.8l5.1-8.8A24.2,24.2,0,0,0,15.6,49.1L21.4,39A14.6,14.6,0,0,1,23,28.4Z"/><path class="cls-2" d="M56.7,23.7l-6.3,11A14.7,14.7,0,0,1,24.5,45.1l-4.9,8.5A24.2,24.2,0,0,0,56.7,23.7Z"/><text class="cls-3" transform="translate(77.1 52.4) rotate(0.2)">Ob<tspan class="cls-4" x="66.7" y="0">i</tspan><tspan x="78.7" y="0">rum</tspan></text></svg>