<?xml version="1.0" encoding="UTF-8" standalone="no"?>
<svg width="95px" height="29px" viewBox="0 0 95 29" version="1.1" xmlns="http://www.w3.org/2000/svg" xmlns:xlink="http://www.w3.org/1999/xlink">
    <!-- Generator: Sketch 3.7.2 (28276) - http://www.bohemiancoding.com/sketch -->
    <title>Logotype</title>
    <desc>Created with Sketch.</desc>
    <defs></defs>
    <g id="Materials" stroke="none" stroke-width="1" fill="none" fill-rule="evenodd">
        <g id="Logotype">
            <g>
                <path d="M0.16,25 L11.944,25 L11.944,22.312 L3.112,22.312 L3.112,8.2 L0.16,8.2 L0.16,25 Z M14.848,25 L17.752,25 L17.752,12.328 L14.848,12.328 L14.848,25 Z M31.096,28.84 L34,28.84 L34,12.328 L31.096,12.328 L31.096,14.296 C30.184,13.12 28.864,12.064 26.776,12.064 C23.752,12.064 20.896,14.44 20.896,18.64 C20.896,22.888 23.8,25.264 26.776,25.264 C28.84,25.264 30.16,24.208 31.096,22.888 L31.096,28.84 Z M27.472,22.744 C25.504,22.744 23.824,21.136 23.824,18.688 C23.824,16.12 25.48,14.584 27.472,14.584 C29.416,14.584 31.144,16.192 31.144,18.64 C31.144,21.112 29.416,22.744 27.472,22.744 L27.472,22.744 Z M41.992,25.264 C43.96,25.264 45.136,24.232 45.952,23.032 L45.952,25 L48.856,25 L48.856,12.328 L45.952,12.328 L45.952,19.48 C45.952,21.448 44.776,22.624 43.096,22.624 C41.368,22.624 40.384,21.496 40.384,19.528 L40.384,12.328 L37.48,12.328 L37.48,20.392 C37.48,23.344 39.136,25.264 41.992,25.264 L41.992,25.264 Z M52.672,25 L55.576,25 L55.576,12.328 L52.672,12.328 L52.672,25 Z" id="Liqui" fill="#202020"></path>
                <polygon id="Star" fill="#1A78FF" opacity="0.6" points="75.8557314 10.9840946 79.5 0.5 83.1442686 10.9840946"></polygon>
                <polygon id="Star" fill="#1A78FF" opacity="0.6" points="78.5 21.5 85 17 88.6106714 28.5397634"></polygon>
                <polygon id="Star" fill="#1A78FF" points="70.3893286 28.5397634 73.6034495 17.9159054 65 11 95 11"></polygon>
                <ellipse id="Oval" fill="#202020" cx="16.2000008" cy="9" rx="2" ry="2"></ellipse>
                <ellipse id="Oval" fill="#202020" cx="54" cy="9" rx="2" ry="2"></ellipse>
            </g>
        </g>
    </g>
</svg>