<?xml version="1.0" encoding="utf-8"?>
<!-- Generator: Adobe Illustrator 20.0.0, SVG Export Plug-In . SVG Version: 6.00 Build 0)  -->
<svg version="1.1" id="Layer_1" xmlns="http://www.w3.org/2000/svg" xmlns:xlink="http://www.w3.org/1999/xlink" x="0px" y="0px"
	 viewBox="0 0 544.6 532.6" style="enable-background:new 0 0 544.6 532.6;" xml:space="preserve">
<style type="text/css">
	.st0{fill:none;stroke:#ED94D2;stroke-width:4;stroke-miterlimit:10;}
	.st1{fill:url(#SVGID_1_);}
	.st2{fill:#FFFFFF;}
	.st3{fill:#00747B;}
	.st4{fill:#EFEFEF;}
	.st5{fill:#E84E0F;}
	.st6{fill:#009BA4;}
	.st7{opacity:0.5;}
	.st8{fill:#43424C;}
	.st9{clip-path:url(#SVGID_3_);fill:#657365;}
	.st10{clip-path:url(#SVGID_5_);fill:#657365;}
	.st11{fill:#657365;}
	.st12{opacity:0.2;fill:#FFFFFF;enable-background:new    ;}
	.st13{fill:url(#SVGID_6_);}
	.st14{fill:url(#SVGID_7_);}
	.st15{fill:#00AAD8;}
	.st16{fill:#EF4637;}
	.st17{fill:#DCDDDE;}
	.st18{fill:#EF6A51;}
	.st19{fill:#0087C9;}
	.st20{font-family:'SegoeUI-Bold';}
	.st21{font-size:47.6664px;}
	.st22{fill:#CC54C3;}
</style>
<g>
	<circle class="st0" cx="263" cy="251.3" r="212.9"/>
	<g>
		
			<linearGradient id="SVGID_1_" gradientUnits="userSpaceOnUse" x1="200.5319" y1="350.5256" x2="329.1499" y2="221.9077" gradientTransform="matrix(1 0 0 -1 0 540)">
			<stop  offset="0" style="stop-color:#9766FF"/>
			<stop  offset="1" style="stop-color:#6C58FF"/>
		</linearGradient>
		<circle class="st1" cx="264.8" cy="253.8" r="90.9"/>
		<g>
			<path class="st2" d="M232.5,235.2c10.3-17.9,33.1-23.9,51-13.8c5.1,3,9.2,6.9,12.4,11.5l12.9-22.3c-3.9-3.9-8.3-7.3-13.1-10.1
				c-29.4-17-67.1-6.9-84.1,22.5c-12.2,20.9-10.6,45.9,2.1,64.8l14.9-25.7C226.5,253.3,227.6,243.7,232.5,235.2z"/>
			<path class="st2" d="M318.4,223.2l-16.1,28c0.5,7.1-1.1,14.7-4.8,21.4c-10.3,17.9-33.1,23.9-51,13.8c-3.9-2.3-7.3-5.1-9.9-8.5
				L224,299.7c3.2,2.8,6.7,5.3,10.3,7.6c29.4,17,67.1,6.9,84.1-22.5C329.6,264.8,328.7,241.6,318.4,223.2z"/>
		</g>
	</g>
	<g>
		<path d="M42.5,315.1c-0.2-3.4-0.5-6.7-0.7-10.1c-6.4-0.7-12.9-1.1-19.3-1.8c0-0.2,0-0.5,0-0.7c2.5-0.9,4.8-1.8,7.3-2.8
			c3-1.1,6-2.3,9.2-3.4c0.7-0.2,1.1-0.9,1.4-1.6c2.1-5.7,3.9-11.3,5.7-17c0.5-1.4,0.9-2.5,1.1-3.9c0.5-1.8,2.1-1.8,3.4-2.3
			c3.2-0.9,6.4-1.4,9.4-2.3c2.3-0.7,4.4-0.2,6.4,0.2c3.2,0.7,6.4,1.6,9.6,2.5c1.1,0.2,1.8,1.1,2.3,2.3c2.3,6.7,4.4,13.3,6.7,20
			c0.5,1.1,1.1,2.1,2.5,2.5c5.3,1.8,10.6,3.9,15.8,6.2c-1.4,0.2-3,0.7-4.4,0.9c-4.6,0.5-9.2,0.9-13.8,1.4c-1.4,0-1.8,0.7-1.8,2.1
			c0,2.5-0.2,5.1-0.5,7.6c6-1.6,11.9-3.2,17.7-4.8c0,0.2,0.2,0.2,0.2,0.5c-1.8,3.2-3.7,6.4-5.5,9.4c-1.8,3.2-3.7,6.4-5.7,9.6
			c-0.5,0.9-0.5,1.6,0.5,2.3c4.6,3.9,8.3,8.5,10.3,14.2c0.7,1.8,1.1,3.7,1.4,5.5c0.7,4.4-0.9,6.9-5.1,8.7
			c-5.1,2.3-10.6,3.4-16.1,4.4c-8.5,1.4-17.2,1.1-25.7,0.9c-8-0.2-16.1-1.4-23.7-4.1c-1.8-0.7-3.7-1.8-5.3-3.2
			c-2.5-1.8-2.3-4.6-1.8-7.3c1.4-7.8,5.5-13.8,11.3-18.8c0.2-0.2,0.2-0.2,0.5-0.5c-4.6-7.1-9-14.2-13.8-21.6
			C29,311.7,35.6,313.5,42.5,315.1z M75.1,307.8c0-1.1-0.9-2.3-2.3-2.3c-1.1,0-2.3,1.1-2.5,2.3c0,1.1,1.1,2.3,2.3,2.3
			C73.8,310.1,74.9,308.9,75.1,307.8z M52.2,305.5c-1.4,0-2.3,0.7-2.5,2.1c-0.2,1.4,0.9,2.5,2.1,2.8c1.1,0,2.5-1.1,2.5-2.3
			C54.5,306.6,53.6,305.7,52.2,305.5z M51.3,352.3c2.1,0,3.4-1.4,3.2-3c0-0.5-0.5-0.7-0.7-0.9c-0.2,0.2-0.7,0.7-0.7,0.9
			c0,1.1-0.5,1.8-1.6,1.8c-0.2,0-0.5,0.5-0.9,0.7C51,351.8,51.3,352.3,51.3,352.3z M48,348.4c0.2,0,0.5,0,0.7,0
			c0.2-0.7,0-1.4,0.5-1.8s1.1-0.7,1.8-0.9c0.2,0,0.2-0.5,0.2-0.7c-0.2-0.2-0.7-0.5-0.7-0.5c-0.9,0.2-1.8,0.5-2.3,1.1
			C47.8,346.3,48,347.5,48,348.4z"/>
		<path class="st2" d="M75.1,307.8c0,1.1-1.1,2.3-2.3,2.3s-2.3-1.4-2.3-2.3c0-1.1,1.1-2.3,2.5-2.3C74,305.5,75.1,306.6,75.1,307.8z"
			/>
		<path class="st2" d="M52.2,305.5c1.4,0.2,2.1,1.1,2.1,2.5c0,1.1-1.4,2.3-2.5,2.3c-1.4,0-2.3-1.4-2.1-2.8
			C50.1,306.1,51,305.5,52.2,305.5z"/>
		<path d="M51.3,352.3c0,0-0.5-0.5-0.7-0.7c0.2-0.2,0.5-0.7,0.9-0.7c1.1,0,1.6-0.7,1.6-1.8c0-0.2,0.5-0.7,0.7-0.9
			c0.2,0.2,0.7,0.7,0.7,0.9C54.7,350.9,53.3,352.3,51.3,352.3z"/>
		<path d="M48,348.4c0-0.9-0.2-2.1,0.2-2.8c0.5-0.7,1.4-0.9,2.3-1.1c0.2,0,0.5,0.2,0.7,0.5c0,0,0,0.5-0.2,0.7
			c-0.7,0.5-1.4,0.5-1.8,0.9s-0.2,1.1-0.5,1.8C48.5,348.4,48.3,348.4,48,348.4z"/>
	</g>
	<g>
		<path class="st3" d="M419.6,78.1c3-9,4.6-17.9,5.5-26.2c0.7-6.2,0.9-11.9,1.1-16.8l0,0l0,0c-5.3,1.1-10.6,1.8-16.1,1.8
			c-10.8,0-19.5-2.5-25-4.6V21.8c2.3,1.4,23.9,11.5,50.1,0l0,0c0.2,3.4,7.8,87.3-50.3,107.7v-10.8c0.5-0.2,0.9-0.5,1.6-0.7
			c1.8-0.9,3.7-1.8,5.3-2.8C406.3,106.8,414.8,92.8,419.6,78.1z"/>
		<path class="st3" d="M435.5,21.8L435.5,21.8L435.5,21.8L435.5,21.8z"/>
		<path class="st2" d="M426.3,35.1L426.3,35.1c0,4.6-0.2,10.3-1.1,16.5C425.8,45.7,426.1,40,426.3,35.1z"/>
		<path class="st2" d="M426.3,35.1L426.3,35.1c0,4.8-0.2,10.6-1.1,16.8c-0.9,8.3-2.5,17.2-5.5,26.2l-24.8-24.8
			c-2.3-2.8-5.7-4.4-9.4-4.4c-6.9,0-12.4,5.5-12.4,12.4v5.5h-2.3c-0.7,0-1.4,0.7-1.4,1.4v23.9c0,0.5,0.2,0.7,0.5,0.9l0,0l22,22
			c-1.6,0.9-3.4,1.8-5.3,2.8c-0.5,0.2-0.9,0.5-1.6,0.7c0,0-0.2,0-0.2,0.2c-31-13.3-38.8-51.4-40.4-75.6c-0.2-3-0.2-5.7-0.5-8.3
			c5.3,1.1,10.6,1.8,16.1,1.8c11.3,0,20-2.5,25-4.6l0,0c5.5,2.1,14.2,4.6,25,4.6C415.5,37,421,36.3,426.3,35.1z"/>
		<path class="st4" d="M394.8,53.3l24.8,24.8c-4.8,14.7-13.3,28.7-27.6,37.2l-22-22l0,0c0.2,0.2,0.5,0.5,0.9,0.5h29.2
			c0.7,0,1.4-0.5,1.4-1.4V68.2c0-0.7-0.5-1.4-1.4-1.4h-2.3v-5.5C397.8,58.3,396.7,55.6,394.8,53.3z"/>
		<path class="st5" d="M394.8,53.3c1.8,2.1,3,5.1,3,8v5.5h2.3c0.7,0,1.4,0.7,1.4,1.4v23.9c0,0.7-0.5,1.4-1.4,1.4h-29.2
			c-0.2,0-0.7-0.2-0.9-0.5c-0.2-0.2-0.5-0.5-0.5-0.9V68.2c0-0.7,0.7-1.4,1.4-1.4h2.3v-5.5c0-6.9,5.5-12.4,12.4-12.4
			C389.1,48.9,392.5,50.8,394.8,53.3z M391.8,66.8v-5.5c0-3.7-3-6.4-6.4-6.4c-3.7,0-6.4,3-6.4,6.4v5.5H391.8z M387.5,81.5
			c0.9-0.7,1.4-1.6,1.4-2.8c0-1.8-1.6-3.4-3.4-3.4s-3.4,1.6-3.4,3.4c0,1.1,0.7,2.3,1.4,2.8v5.1c0,0.5,0.5,0.9,0.9,0.9h2.3
			c0.5,0,0.9-0.5,0.9-0.9V81.5z"/>
		<path class="st4" d="M391.8,61.3v5.5H379v-5.5c0-3.7,3-6.4,6.4-6.4C389.1,54.9,391.8,57.9,391.8,61.3z"/>
		<path class="st2" d="M388.9,78.6c0,1.1-0.7,2.3-1.4,2.8v5.1c0,0.5-0.5,0.9-0.9,0.9h-2.3c-0.5,0-0.9-0.5-0.9-0.9v-5.1
			c-0.9-0.7-1.4-1.6-1.4-2.8c0-1.8,1.6-3.4,3.4-3.4C387.3,75.1,388.9,76.7,388.9,78.6z"/>
		<path class="st6" d="M385.2,118.7v10.8l0,0c-8.3-3-15.2-7.1-20.9-12.2l-5.7-5.7c-28.9-32.8-24.1-89.8-24.1-89.8
			c26.4,11.7,47.5,1.4,50.8,0l0,0v10.6l0,0c-5.1,1.8-13.8,4.6-25,4.6c-5.3,0-10.8-0.7-16.1-1.8c0,2.5,0.2,5.3,0.5,8.3
			c1.6,24.1,9.2,62.2,40.4,75.6C385.2,119,385.2,118.7,385.2,118.7z"/>
		<path class="st6" d="M358.8,111.6l5.7,5.7C362.4,115.5,360.4,113.5,358.8,111.6z"/>
		<g class="st7">
			<path d="M435.5,21.8c-26.4,11.5-47.8,1.4-50.1,0l0,0c-3.2,1.4-24.3,11.5-50.8,0c0,0-2.1,25,4.8,51.4c14.2,5.5,29.9,8.3,45.9,8.3
				c16.3,0,31.7-3,46.2-8.5C438,46.6,435.5,21.8,435.5,21.8z"/>
		</g>
	</g>
	<g>
		<g>
			<g>
				<path id="XMLID_1_" class="st8" d="M477.3,244.1l-3.7-1.6l-3.4-2.3c-7.1,11.3-28.9,45.5-29.4,49.1c-0.5,3.7,3.9,6,3.9,6
					s4.1,2.5,7.1,0C454.8,293.3,471.8,256.3,477.3,244.1z"/>
			</g>
			<g>
				<defs>
					<path id="SVGID_2_" d="M477.3,244.1l-3.7-1.6l-3.4-2.3c-7.1,11.3-28.9,45.5-29.4,49.1c-0.5,3.7,3.9,6,3.9,6s4.1,2.5,7.1,0
						C454.8,293.3,471.8,256.3,477.3,244.1z"/>
				</defs>
				<clipPath id="SVGID_3_">
					<use xlink:href="#SVGID_2_"  style="overflow:visible;"/>
				</clipPath>
				<path class="st9" d="M462.6,286.9c-3.4-0.5-6.9-0.7-10.3-2.1c-1.4-0.5-2.8-1.4-4.1-2.1c-1.1-0.7-2.5-1.6-3.2-3
					c-0.2-0.2-0.7-0.2-0.5,0.2c0.5,1.4,1.4,2.3,2.5,3.2c1.1,1.1,2.5,2.1,4.1,2.8c3.4,1.8,7.6,2.5,11.5,2.3
					C463.5,288.5,463.7,287.1,462.6,286.9z"/>
			</g>
			<g>
				<defs>
					<path id="SVGID_4_" d="M477.3,244.1l-3.7-1.6l-3.4-2.3c-7.1,11.3-28.9,45.5-29.4,49.1c-0.5,3.7,3.9,6,3.9,6s4.1,2.5,7.1,0
						C454.8,293.3,471.8,256.3,477.3,244.1z"/>
				</defs>
				<clipPath id="SVGID_5_">
					<use xlink:href="#SVGID_4_"  style="overflow:visible;"/>
				</clipPath>
				<path class="st10" d="M464.4,284.1c-1.6-0.2-3,0-4.6-0.2c-1.6-0.2-3.4-0.7-5.1-1.1c-3.2-1.1-6.2-2.8-8.5-5.1
					c-0.2-0.2-0.7,0.2-0.5,0.5c2.3,2.8,5.3,4.6,8.5,6c3,1.1,7.1,2.3,10.3,0.9C465.1,284.8,464.9,284.3,464.4,284.1z"/>
			</g>
		</g>
		<g>
			<path class="st11" d="M503.9,184.2c2.1,0.9,4.4,2.1,5.7,3.7l1.1-2.1c0.5-0.9,0.5-2.1-0.2-2.8c-1.8-1.8-3.9-2.8-6.4-3.4
				c-0.9-0.2-2.1,0.5-2.5,1.4l-1.4,2.3C501.4,183.3,502.8,183.7,503.9,184.2z"/>
		</g>
		<g>
			<path class="st11" d="M468.6,234.7l-0.9,1.6c-0.7,1.4-0.5,3.4,0.5,4.6c3,2.8,6.2,4.6,10.1,5.5c1.6,0.2,3.4-0.7,4.1-2.1l0.9-1.6
				c-2.8-0.7-5.3-1.6-7.8-3C472.9,238.4,470.4,236.8,468.6,234.7z"/>
			<path class="st8" d="M520.9,203c-2.3-8-7.8-14.9-15.4-18.8c-4.6-2.5-9.9-3.9-15.2-3.9c-11.7,0-22.3,6.4-28,16.5
				c-4.1,7.3-5.1,16.1-2.5,24.1c1.6,5.3,4.4,10.1,8.5,13.8c2.1,2.1,4.4,3.7,6.9,5.1s5.1,2.3,7.8,3c2.5,0.7,4.8,0.9,7.3,0.9
				c11.7,0,22.3-6.4,28-16.5C522.5,219.8,523.4,211.1,520.9,203z M514.7,225.1c-4.8,8.7-14,14.2-24.1,14.2c-4.6,0-9-1.1-13.1-3.4
				c-13.3-7.1-18.1-23.9-11-37.2c4.8-8.7,14-14.2,24.1-14.2c4.6,0,9,1.1,13.1,3.4c6.4,3.4,11,9.2,13.1,16.3
				C518.8,211.3,518.2,218.6,514.7,225.1z"/>
			<path class="st12" d="M514.5,204.9c-1.8-6.4-6.2-11.7-11.9-14.9c-3.7-2.1-7.8-3-11.9-3c-9.2,0-17.5,5.1-21.8,13.1
				c-6.7,12.2-2.1,27.1,9.9,33.8c3.7,2.1,7.8,3,11.9,3c9.2,0,17.5-5.1,21.8-13.1C515.6,218,516.3,211.3,514.5,204.9z"/>
			<path class="st11" d="M503.7,187.9c-3.9-2.3-8.5-3.4-13.1-3.4c-10.1,0-19.3,5.5-24.1,14.2c-7.1,13.3-2.3,29.9,11,37.2
				c3.9,2.3,8.5,3.4,13.1,3.4c10.1,0,19.3-5.5,24.1-14.2c3.4-6.4,4.4-13.8,2.3-20.9C514.7,197.3,510.1,191.3,503.7,187.9z
				 M490.6,236.8c-4.1,0-8.3-1.1-11.9-3c-12.2-6.7-16.5-21.8-9.9-33.8c4.4-8,12.9-13.1,21.8-13.1c4.1,0,8.3,1.1,11.9,3
				c5.7,3.2,10.1,8.5,11.9,14.9c1.8,6.4,1.1,13.1-2.1,19.1C508.1,232,499.6,236.8,490.6,236.8z"/>
		</g>
	</g>
	<g>
		
			<image style="overflow:visible;opacity:0.3;enable-background:new    ;" width="279" height="250" xlink:href="ADCE5876.png"  transform="matrix(0.5492 0 0 0.5358 325.5763 355.7295)">
		</image>
		<g>
			<g>
				<path class="st2" d="M374.2,421.9c-0.5,0-1.1,0-1.6-0.2c-1.8-0.7-3.4-2.3-3.7-4.1l-6-27.8c-0.5-2.1,0.2-3.9,1.6-5.3
					c1.1-0.9,2.3-1.4,3.7-1.4c0.5,0,1.1,0,1.6,0.2l3,0.9c0.2-0.2,0.5-0.5,0.7-0.7c0.2-0.2,0.2-0.5,0.5-0.5c0.7-0.7,1.4-1.4,2.1-2.1
					c0.2-0.2,0.5-0.5,0.5-0.5c0.7-0.7,1.4-1.4,2.3-1.8c0.2-0.2,0.5-0.5,0.9-0.7l0.2-0.2l1.8-1.4c0.2-0.2,0.5-0.2,0.7-0.5l0.9-0.7
					c2.8-1.8,5.7-3.2,9-4.6c3.7-1.4,7.1-2.3,10.8-2.8c2.3-0.2,4.8-0.5,7.1-0.5c1.4,0,3,0,4.4,0.2l1.4,0.2h0.2l1.4,0.2
					c0.9,0,1.6,0.2,2.3,0.5c0.2,0,0.7,0.2,0.7,0.2c0.7,0.2,1.6,0.5,2.3,0.5l0.5,0.2h0.2c0.2,0,0.5,0.2,0.7,0.2
					c0.7,0.2,1.4,0.5,2.1,0.7c3.9,1.4,7.3,3,10.6,5.1s6,4.6,8.5,7.1c5.7,6,8.5,12.2,10.1,16.5c0.9,2.3,1.4,4.8,1.8,7.3l0.2,1.6v0.2
					l0.2,1.4c0,0.7,0.2,1.4,0.2,2.1c0,0.2,0,0.5,0,0.5v0.2c0,1.6,0,2.8,0,3.7v1.1c-0.2,3-2.5,5.3-5.5,5.3c0,0,0,0-0.2,0
					c-3,0-5.3-2.3-5.5-5.1l-0.2-1.1c0-0.2,0-1.1-0.5-2.5c0-0.2,0-0.5-0.2-0.7c0-0.5-0.2-0.9-0.2-1.1l-0.2-1.1l-0.5-1.1
					c-0.7-1.8-1.4-3.4-2.1-5.1c-2.1-3.9-5.1-7.3-8.5-10.1c-1.8-1.4-3.9-2.8-6.2-3.9c-2.1-0.9-4.4-1.8-6.9-2.3c0,0,0,0-0.2,0
					s-0.5,0-0.9-0.2c-0.2,0-0.5,0-0.7,0c-0.2,0-0.2,0-0.5,0c-0.5,0-0.7,0-1.1,0c-0.2,0-0.5,0-0.7,0c-0.2,0-0.5,0-0.9,0H416H415h-0.9
					c-2.3,0.2-4.6,0.5-6.7,1.1c-1.8,0.5-3.7,1.4-5.7,2.5c-1.1,0.7-2.1,1.4-3,2.1c0.9,0.7,1.4,1.8,1.8,3c0.5,2.1-0.2,3.9-1.6,5.3
					l-21.1,18.4C376.9,421.4,375.5,421.9,374.2,421.9z"/>
				
					<linearGradient id="SVGID_6_" gradientUnits="userSpaceOnUse" x1="409.8733" y1="123.6938" x2="409.8733" y2="167.184" gradientTransform="matrix(1 0 0 -1 0 540)">
					<stop  offset="4.878050e-03" style="stop-color:#F15A24"/>
					<stop  offset="3.242781e-02" style="stop-color:#F15E25"/>
					<stop  offset="0.2285" style="stop-color:#F1742C"/>
					<stop  offset="0.441" style="stop-color:#F18430"/>
					<stop  offset="0.6799" style="stop-color:#F18E33"/>
					<stop  offset="1" style="stop-color:#F19134"/>
				</linearGradient>
				<path class="st13" d="M374.2,416.4l21.1-19.1l-6.2-2.1c0.2-0.5,0.7-0.9,1.1-1.4c0.5-0.7,1.1-1.1,1.6-1.8
					c0.2-0.2,0.7-0.7,0.9-0.9c0.2-0.2,0.5-0.2,0.5-0.5c0.2-0.2,0.5-0.2,0.5-0.5c1.6-1.4,3.2-2.5,5.3-3.7s4.4-2.3,6.9-3
					c2.5-0.7,5.3-1.1,8-1.4h1.1h0.9c0.7,0,1.4,0,2.1,0s1.4,0.2,2.1,0.2c0.7,0.2,1.4,0.2,2.1,0.2c2.8,0.5,5.7,1.4,8.3,2.5
					c2.5,1.1,5.1,2.8,7.3,4.4c4.4,3.4,7.8,7.8,9.9,11.9c1.1,2.1,1.8,4.1,2.5,6c0.2,0.5,0.2,0.9,0.5,1.4c0,0.5,0.2,0.9,0.2,1.1
					c0.2,0.7,0.2,1.6,0.5,2.3c0.2,1.4,0.5,2.5,0.5,3.2c0,0.7,0,1.1,0,1.1s0-0.5,0-1.1s0-1.8,0-3.2c0-0.7,0-1.4-0.2-2.3
					c0-0.5,0-0.9-0.2-1.4c0-0.5-0.2-0.9-0.2-1.4c-0.2-1.8-0.9-4.1-1.6-6.4c-1.6-4.6-4.4-9.9-8.7-14.5c-2.1-2.3-4.8-4.4-7.6-6.2
					c-2.8-1.8-6-3.4-9.2-4.6c-0.9-0.2-1.6-0.5-2.5-0.7s-1.6-0.5-2.5-0.7c-0.9-0.2-1.6-0.5-2.5-0.5l-1.4-0.2l-1.1-0.2
					c-3.4-0.2-6.9-0.2-10.3,0.2c-3.4,0.5-6.4,1.4-9.4,2.5c-3,1.1-5.5,2.5-7.8,4.1c-0.2,0.2-0.7,0.5-0.9,0.5
					c-0.2,0.2-0.5,0.5-0.9,0.7c-0.5,0.5-1.1,0.7-1.6,1.1c-0.9,0.9-1.8,1.6-2.8,2.3c-0.9,0.7-1.6,1.4-2.3,2.3
					c-0.7,0.7-1.4,1.4-1.8,2.1c-0.5,0.7-1.1,1.4-1.4,1.8l0,0l-6.7-2.1L374.2,416.4z"/>
				<path class="st2" d="M393.7,459.8c-1.4,0-3,0-4.4-0.2l-1.4-0.2h-0.2l-1.4-0.2c-0.9,0-1.6-0.2-2.3-0.5c-0.2,0-0.7-0.2-0.7-0.2
					c-0.7-0.2-1.6-0.5-2.3-0.5l-0.5-0.2h-0.2c-0.2,0-0.5-0.2-0.7-0.2c-0.7-0.2-1.4-0.5-2.1-0.7c-3.9-1.4-7.3-3-10.6-5.1
					c-3.2-2.1-6-4.6-8.5-7.1c-5.7-6-8.5-12.2-10.1-16.5c-0.9-2.3-1.4-4.8-1.8-7.3l-0.2-1.6v-0.2l-0.2-1.4c0-0.7-0.2-1.4-0.2-2.1
					c0-0.2,0-0.5,0-0.5v-0.2c0-1.6,0-2.8,0-3.7V410c0.2-3,2.5-5.3,5.5-5.3c0,0,0,0,0.2,0c3,0,5.3,2.3,5.5,5.1l0.2,1.1
					c0,0.2,0,1.1,0.5,2.5c0,0.2,0,0.5,0.2,0.7c0,0.5,0.2,0.9,0.2,1.1l0.2,1.1l0.5,1.1c0.7,1.8,1.4,3.4,2.1,5.1
					c2.1,3.9,5.1,7.3,8.5,10.1c1.8,1.4,3.9,2.8,6.2,3.9c2.1,0.9,4.4,1.8,6.9,2.3c0,0,0,0,0.2,0c0.2,0,0.5,0,0.9,0.2
					c0.2,0,0.5,0,0.7,0c0.2,0,0.2,0,0.5,0c0.5,0,0.9,0,1.1,0s0.5,0,0.7,0c0.2,0,0.5,0,0.9,0h0.2h0.9h0.9c2.3-0.2,4.6-0.5,6.7-1.1
					c1.8-0.5,3.7-1.4,5.7-2.5c1.1-0.7,2.1-1.4,3-2.1c-0.9-0.7-1.4-1.8-1.8-3c-0.5-2.1,0.2-3.9,1.6-5.3l21.1-19.1
					c1.1-0.9,2.3-1.4,3.7-1.4c0.5,0,1.1,0,1.6,0.2c1.8,0.7,3.4,2.3,3.7,4.1l6,27.8c0.5,2.1-0.2,3.9-1.6,5.3
					c-1.1,0.9-2.3,1.4-3.7,1.4c-0.5,0-1.1,0-1.6-0.2l-3-0.9c-0.2,0.2-0.5,0.5-0.7,0.7c-0.2,0.2-0.2,0.5-0.5,0.5
					c-0.7,0.7-1.4,1.4-2.1,2.1c-0.2,0.2-0.5,0.5-0.5,0.5c-0.7,0.7-1.4,1.4-2.3,1.8c-0.2,0.2-0.5,0.5-0.9,0.7l-0.2,0.2l-1.8,1.4
					c-0.2,0.2-0.5,0.2-0.7,0.5c0,0,0,0-0.2,0l-0.9,0.5c-2.8,1.8-5.7,3.2-9,4.6c-3.7,1.4-7.1,2.3-10.8,2.8
					C398.7,459.6,396.2,459.8,393.7,459.8z"/>
				
					<linearGradient id="SVGID_7_" gradientUnits="userSpaceOnUse" x1="394.1412" y1="85.8053" x2="394.1412" y2="129.296" gradientTransform="matrix(1 0 0 -1 0 540)">
					<stop  offset="4.878050e-03" style="stop-color:#69AB58"/>
					<stop  offset="0.1556" style="stop-color:#84BC61"/>
					<stop  offset="0.3266" style="stop-color:#9ACB68"/>
					<stop  offset="0.5121" style="stop-color:#AAD56D"/>
					<stop  offset="0.7206" style="stop-color:#B4DB70"/>
					<stop  offset="1" style="stop-color:#B7DD71"/>
				</linearGradient>
				<path class="st14" d="M435.9,438.4l-6-27.8l-21.1,19.1l6.2,2.1c-0.2,0.5-0.7,0.9-1.1,1.4c-0.5,0.7-1.1,1.1-1.6,1.8
					c-0.2,0.2-0.7,0.7-0.9,0.9c-0.2,0.2-0.5,0.2-0.5,0.5c-0.2,0.2-0.5,0.2-0.5,0.5c-1.6,1.4-3.2,2.5-5.3,3.7s-4.4,2.3-6.9,3
					c-2.5,0.7-5.3,1.1-8,1.4h-1.1h-0.9c-0.7,0-1.4,0-2.1,0s-1.4-0.2-2.1-0.2c-0.7-0.2-1.4-0.2-2.1-0.2c-2.8-0.5-5.7-1.4-8.3-2.5
					s-5.1-2.8-7.3-4.4c-4.4-3.4-7.8-7.8-9.9-11.9c-1.1-2.1-1.8-4.1-2.5-6c-0.2-0.5-0.2-0.9-0.5-1.4c0-0.5-0.2-0.9-0.2-1.1
					c-0.2-0.7-0.2-1.6-0.5-2.3c-0.2-1.4-0.5-2.5-0.5-3.2c0-0.7,0-1.1,0-1.1s0,0.5,0,1.1s0,1.8,0,3.2c0,0.7,0,1.4,0.2,2.3
					c0,0.5,0,0.9,0.2,1.4c0,0.5,0.2,0.9,0.2,1.4c0.2,1.8,0.9,4.1,1.6,6.4c1.6,4.6,4.4,9.9,8.7,14.5c2.1,2.3,4.8,4.4,7.6,6.2
					c2.8,1.8,6,3.4,9.2,4.6c0.9,0.2,1.6,0.5,2.5,0.7s1.6,0.5,2.5,0.7s1.6,0.5,2.5,0.5l1.4,0.2l1.1,0.2c3.4,0.2,6.9,0.2,10.3-0.2
					c3.4-0.5,6.4-1.4,9.4-2.5c3-1.1,5.5-2.5,7.8-4.1c0.2-0.2,0.7-0.5,0.9-0.5c0.2-0.2,0.5-0.5,0.9-0.7c0.5-0.5,1.1-0.7,1.6-1.1
					c0.9-0.9,1.8-1.6,2.8-2.3c0.9-0.7,1.6-1.4,2.3-2.3c0.7-0.7,1.4-1.4,1.8-2.1c0.5-0.7,1.1-1.4,1.4-1.8l0,0L435.9,438.4z"/>
			</g>
		</g>
	</g>
	<g>
		<path class="st15" d="M102.9,126.3l-20.7-22.5l-6.7,6.2c-0.5,3.4-0.5,6.9-0.5,8.7c0,0.9,0.5,1.8,1.1,2.5l8.7,9.4
			c0.7,0.7,1.8,1.1,2.8,1.4c1.8,0,5.3,0.2,8.7,0.2L102.9,126.3z"/>
		<g>
			<path class="st2" d="M139.4,37.4c-9.4,4.8-20,12.4-31,24.1C91.9,79.2,84.6,93.2,80,101.3c-3.4,6.2-0.7,16.1,4.1,21.4l0,0
				c4.8,5.3,14.2,8.7,20.9,5.7c8.3-3.9,23-9.9,42-24.8c12.6-9.9,21.1-19.8,26.6-28.9c-8-3-15.4-7.8-21.6-14.5
				C145.9,53.5,141.7,45.7,139.4,37.4z"/>
			<path class="st15" d="M152.1,60.4c-6.2-6.7-10.1-14.7-12.6-23c-0.2-0.5-0.7-0.7-1.1-0.5c-0.5,0.2-1.1,0.5-1.6,0.9
				c-0.5,0.2-0.5,0.7-0.5,0.9c4.4,17.7,18.6,33.5,36.1,39.3c0.5,0.2,0.9,0,0.9-0.5c0.2-0.5,0.7-1.1,0.9-1.6c0.2-0.5,0-1.1-0.5-1.4
				C165.9,71.7,158.3,67.1,152.1,60.4z"/>
			<path class="st16" d="M184,31c-2.1-0.2-20-6-44.6,6.4c2.3,8.3,6.4,16.1,12.6,22.7c6.2,6.7,13.6,11.5,21.6,14.5
				C188.4,51.4,184.2,33.1,184,31z"/>
			<path class="st15" d="M184,31c-1.1-0.2-6.4-1.8-15.2-1.6c1.8,3.2,4.1,6.2,6.9,9.2c2.5,2.8,5.5,5.3,8.5,7.6
				C185.4,37.7,184,32.2,184,31z"/>
			<path class="st17" d="M173.9,74.9c6.9-11,9.6-21.1,10.6-28.7l0,0l0,0c1.1-8-0.2-15.2-0.2-15.2l0,0l0,0h-0.5h-0.2
				c0,0.2-4.4,24.8-11.9,37c-6.2,9.9-15.4,20.7-29.2,31.7c-20.9,16.5-37,23-46.2,27.3c-1.4,0.7-3,0.9-4.6,1.1
				c4.6,2.1,9.6,2.8,13.8,0.7c8.3-3.9,23-9.9,42-24.8C159.7,93.9,168.2,84.1,173.9,74.9z"/>
		</g>
		<g>
			<path class="st16" d="M91.7,81.8l-17,4.6c-1.1,0.2-2.1,0.9-2.8,1.8l-21.4,23.2c-0.7,0.9-0.7,2.1,0,3l0,0c0.7,0.7,1.6,0.9,2.5,0.5
				L77,103.4l4.8,0.2c0.7,0,1.1-0.2,1.6-0.9l9.9-19.3C93.7,82.5,92.8,81.3,91.7,81.8z"/>
			<path class="st18" d="M51,112.8l21.4-23.2c0.7-0.9,1.6-1.6,2.8-1.8l17-4.6c0.5-0.2,0.9,0,1.1,0.2c0.5-0.9-0.5-2.1-1.6-1.6
				l-17,4.6c-1.1,0.2-2.1,0.9-2.8,1.8l-21.4,23.2c-0.7,0.7-0.7,1.8-0.2,2.8C50.6,113.7,50.8,113.2,51,112.8z"/>
		</g>
		<g>
			<path class="st16" d="M125.7,118.7l-6,16.5c-0.5,1.1-1.1,2.1-2.1,2.5l-25,19.3c-0.9,0.7-2.1,0.7-3-0.2l0,0
				c-0.7-0.7-0.7-1.8-0.2-2.5l13.6-22.7v-4.8c0-0.7,0.5-1.1,0.9-1.4l20-8C125,116.7,126.1,117.6,125.7,118.7z"/>
			<path class="st18" d="M91.2,156.4l25-19.3c0.9-0.5,1.8-1.4,2.1-2.5l6-16.5c0.2-0.5,0-0.9-0.2-1.1c0.9-0.2,1.8,0.7,1.6,1.6
				l-6,16.5c-0.5,1.1-1.1,2.1-2.1,2.5l-25,19.3c-0.7,0.7-1.8,0.7-2.8,0C90.3,156.9,90.8,156.9,91.2,156.4z"/>
		</g>
		
			<ellipse transform="matrix(0.7367 -0.6763 0.6763 0.7367 -14.5714 111.932)" class="st16" cx="136.4" cy="74.7" rx="13.1" ry="13.1"/>
		<ellipse transform="matrix(0.7367 -0.6763 0.6763 0.7367 -14.5713 111.9319)" class="st2" cx="136.4" cy="74.7" rx="11" ry="11"/>
		
			<ellipse transform="matrix(0.7367 -0.6763 0.6763 0.7367 -14.5714 111.932)" class="st19" cx="136.4" cy="74.7" rx="9.4" ry="9.4"/>
		<path class="st15" d="M143.3,68.4c-3.4-3.9-9.4-4.1-13.3-0.5c-2.1,1.8-3,4.4-3,6.7l18.6-1.1C145.4,71.4,144.7,69.8,143.3,68.4z"/>
		<path class="st16" d="M99.9,101.1l-33.8,36.3c-0.7,0.7-0.7,1.6,0,2.3l0,0c0.7,0.7,1.6,0.7,2.3,0.2l38.8-30.8
			c2.5-2.1,2.8-5.7,0.7-8l0,0C105.9,98.8,102.2,98.8,99.9,101.1z"/>
	</g>
	<g>
		<g>
			<text transform="matrix(1 0 0 1 170.8742 477.3975)" class="st20 st21">AD</text>
		</g>
		<g>
			<path class="st22" d="M256.1,459.8c0,28-22.7,51-51,51c-28,0-51-22.7-51-51s22.7-51,51-51C233.4,409,256.1,431.8,256.1,459.8z
				 M205.1,418.9c-22.5,0-40.9,18.4-40.9,40.9s18.4,40.9,40.9,40.9s40.9-18.4,40.9-40.9S227.9,418.9,205.1,418.9z"/>
			
				<rect x="155.5" y="454.5" transform="matrix(0.7071 -0.7071 0.7071 0.7071 -264.9954 279.7748)" class="st22" width="99.4" height="10.6"/>
		</g>
	</g>
</g>
</svg>
