<?xml version="1.0" encoding="utf-8"?>
<!-- Generator: Adobe Illustrator 20.0.0, SVG Export Plug-In . SVG Version: 6.00 Build 0)  -->
<svg version="1.1" id="Layer_1" xmlns="http://www.w3.org/2000/svg" xmlns:xlink="http://www.w3.org/1999/xlink" x="0px" y="0px"
	 viewBox="0 0 527.2 527.2" style="enable-background:new 0 0 527.2 527.2;" xml:space="preserve">
<style type="text/css">
	.st0{fill:#861013;}
	.st1{fill:#4A191E;}
	.st2{fill:#C978EA;stroke:#7B34A5;stroke-width:2;stroke-miterlimit:10;}
	.st3{fill:none;stroke:#7B34A5;stroke-width:2;stroke-linecap:round;stroke-miterlimit:10;}
	.st4{fill:url(#SVGID_1_);stroke:#7B34A5;stroke-width:2;stroke-miterlimit:10;}
	.st5{fill:#FFFFFF;}
	.st6{fill:#F2B675;stroke:#CE7525;stroke-width:2;stroke-miterlimit:10;}
	.st7{fill:#F7931A;stroke:#CE7525;stroke-width:2;stroke-miterlimit:10;}
	.st8{fill:none;stroke:#B56C1C;stroke-width:2;stroke-linecap:round;stroke-miterlimit:10;}
	.st9{fill:#8FCCD1;stroke:#1F9B8C;stroke-width:2;stroke-miterlimit:10;}
	.st10{fill:none;stroke:#1F9B8C;stroke-width:2;stroke-linecap:round;stroke-miterlimit:10;}
	.st11{fill:#44BCB3;stroke:#1F9B8C;stroke-width:2;stroke-miterlimit:10;}
	.st12{fill:#8A92B2;}
	.st13{fill:#62688F;}
	.st14{fill:#454A75;}
	.st15{fill:url(#SVGID_2_);stroke:#7B34A5;stroke-width:2;stroke-miterlimit:10;}
	.st16{fill:#842829;}
	.st17{opacity:0.3;fill:#4A191E;enable-background:new    ;}
	.st18{fill:#3D0A13;}
	.st19{fill:#DB9C32;}
	.st20{clip-path:url(#SVGID_4_);fill:#F3EFDB;}
	.st21{clip-path:url(#SVGID_6_);fill:#F3EFDB;}
</style>
<g>
	<g>
		<path class="st0" d="M513.6,497c0,9.1-7.3,16.6-16.6,16.6H63.1c-9.1,0-16.6-7.3-16.6-16.6V158.2c0-9.1,7.3-16.6,16.6-16.6H497
			c9.1,0,16.6,7.3,16.6,16.6L513.6,497L513.6,497z"/>
		<path class="st1" d="M497,497c0,9.1-7.3,16.6-16.6,16.6H46.5c-9.1,0-16.6-7.3-16.6-16.6V158.2c0-9.1,7.3-16.6,16.6-16.6h433.9
			c9.1,0,16.6,7.3,16.6,16.6V497z"/>
	</g>
	<g>
		<g>
			<path class="st2" d="M269.1,142.9c6.8,29.7-14.6,55.6-48,57.8c-33.2,2.3-65.6-20.1-72.4-49.8s14.6-55.6,48-57.8
				S262.3,113,269.1,142.9z"/>
			<g>
				<line class="st3" x1="247.5" y1="186.1" x2="238.4" y2="197"/>
				<line class="st3" x1="273.4" y1="161.5" x2="262.8" y2="178.6"/>
				<line class="st3" x1="230.4" y1="189.7" x2="221.8" y2="200"/>
				<line class="st3" x1="212" y1="189.4" x2="203.7" y2="199.5"/>
				<line class="st3" x1="180.6" y1="176.8" x2="172.8" y2="186.1"/>
				<line class="st3" x1="158.7" y1="150.2" x2="151.4" y2="159"/>
				<line class="st3" x1="154.4" y1="132.8" x2="147.4" y2="141.4"/>
				<line class="st3" x1="164.5" y1="101.4" x2="154.2" y2="116.2"/>
			</g>
		</g>
		<g>
			
				<linearGradient id="SVGID_1_" gradientUnits="userSpaceOnUse" x1="159.998" y1="545.7546" x2="247.9762" y2="457.7767" gradientTransform="matrix(0.9899 -0.1417 -0.1417 -0.9899 84.5987 662.2007)">
				<stop  offset="0" style="stop-color:#9766FF"/>
				<stop  offset="1" style="stop-color:#6C58FF"/>
			</linearGradient>
			<path class="st4" d="M275.7,132.6c6.8,29.7-14.6,55.6-48,57.8c-33.2,2.3-65.6-20.1-72.4-49.8c-6.8-29.7,14.6-55.6,48-57.8
				C236.4,80.5,268.9,102.9,275.7,132.6z"/>
			<g>
				<path class="st5" d="M191.4,127c4.5-11.1,18.6-15.6,31.9-10.3c3.8,1.5,7,3.8,9.8,6.3l5.5-13.8c-3-2-6.3-4-10.1-5.5
					c-21.9-8.8-45.3-1-52.6,17.1c-5.3,12.8-0.8,27.7,10.1,38.2l6.3-15.8C189.9,138.1,189.4,132.3,191.4,127z"/>
				<path class="st5" d="M246.5,116.2l-6.8,17.4c1.3,4.3,1.3,8.8-0.3,12.8c-4.5,11.1-18.6,15.6-31.9,10.3c-3-1.3-5.5-2.8-7.8-4.5
					l-5.3,13.3c2.5,1.5,5,3,8,4c21.9,8.8,45.3,1,52.6-17.1C259.6,140.4,256,126.5,246.5,116.2z"/>
			</g>
		</g>
	</g>
	<g>
		<path class="st6" d="M318.9,99.6c-5.3,31.9-35.7,50.6-67.9,41.5c-32.2-9.1-53.8-42.3-48.5-74.2c5.3-31.9,35.7-50.6,67.9-41.5
			C302.3,34.2,324.2,67.7,318.9,99.6z"/>
		<g>
			<path class="st7" d="M327.7,91.1c-5.3,31.9-35.7,50.6-67.9,41.5s-54.1-42.3-48.5-74.2c5.3-31.9,35.7-50.6,67.9-41.5
				C311.1,25.9,333,59.1,327.7,91.1z"/>
			<path class="st5" d="M293.5,88.3c-0.5-2-1.3-3.8-2.3-5.3c-1-1.5-2.5-3-4.3-4.3c-1.8-1.3-3.5-2.3-5.5-3v-0.3
				c3.5,0.3,6.5-0.5,8.8-2c2.5-1.8,3.8-4.3,4.5-7.5c0.5-3.3,0.3-6-1-8.6c-1.3-2.5-2.8-4.5-5-6.3c-2.3-1.8-4.8-3-7.5-4.3l0,0l1.5-9.1
				l-7.3-2l-1.5,8.6c-0.5-0.3-1-0.3-1.5-0.5l-3.5-1l1.5-8.6l-7.3-2l-1.5,8.6L248.2,37c-0.5,1-0.8,2.3-0.5,3.5l7,4.3l-8,49h-7.8
				c-0.5,1-0.8,2.3-0.5,3.5l13.3,3.8l-1.3,8l7.3,2l1.3-8l5,1.5l-1.3,8l7.3,2l1.5-8.6c1,0.3,2,0.3,3,0.3c3.3,0.3,6.3,0.3,9.1-0.5
				s5-2,7-3.8c2-1.8,3.3-4.5,3.8-8C294.3,92.3,294,90.3,293.5,88.3z M271.1,50.6c4,1.3,6.8,2.8,8.3,4.8c1.5,2,2,4.8,1.5,7.8
				c-0.5,3.3-1.8,5.3-3.8,6.3c-2,1-5,1-9.1,0l-3.3-1l3.3-19.1L271.1,50.6z M278.2,96.4c-1,1.3-2,2-3.5,2.5c-1.3,0.5-3,0.8-4.8,0.5
				c-1.8-0.3-3.8-0.5-5.8-1l-4.5-1.3l3.8-22.1l4.5,1.3c2,0.5,3.8,1.3,5.5,2c1.8,0.8,3,1.8,4,3c1,1.3,1.8,2.5,2.3,4.3
				c0.5,1.5,0.5,3.5,0.3,5.8C279.7,93.3,278.9,95.1,278.2,96.4z"/>
		</g>
		<g>
			<line class="st8" x1="302.6" y1="129.8" x2="314.6" y2="118"/>
			<line class="st8" x1="230.6" y1="115.2" x2="221.3" y2="123"/>
			<line class="st8" x1="251.8" y1="129.6" x2="242" y2="137.6"/>
			<line class="st8" x1="267.6" y1="134.6" x2="259.3" y2="142.6"/>
			<line class="st8" x1="287.2" y1="133.6" x2="279.2" y2="141.9"/>
			<line class="st8" x1="212.8" y1="85" x2="203.7" y2="92.3"/>
			<line class="st8" x1="213.8" y1="48.3" x2="205.5" y2="55.4"/>
			<line class="st8" x1="218.1" y1="36.7" x2="231.1" y2="24.9"/>
		</g>
	</g>
	<g>
		<g>
			<path class="st9" d="M178.1,138.1c-4.3,31.4-33.2,49.3-64.9,40s-53.8-42-49.8-73.4c4.3-31.4,33.2-49.3,64.9-40
				S182.1,106.9,178.1,138.1z"/>
			<g>
				<line class="st10" x1="163" y1="167.8" x2="174.6" y2="156.2"/>
				<line class="st10" x1="92.6" y1="152.7" x2="83.5" y2="160.2"/>
				<line class="st10" x1="113.4" y1="167" x2="104.1" y2="174.8"/>
				<line class="st10" x1="129" y1="172.1" x2="121.2" y2="179.9"/>
				<line class="st10" x1="148.4" y1="171.3" x2="140.6" y2="179.4"/>
				<line class="st10" x1="74.2" y1="122.8" x2="65.4" y2="129.8"/>
				<line class="st10" x1="74" y1="86.8" x2="66.2" y2="93.6"/>
				<line class="st10" x1="77.7" y1="75.5" x2="90" y2="63.9"/>
			</g>
		</g>
		<g>
			
				<ellipse transform="matrix(0.7578 -0.6525 0.6525 0.7578 -42.8647 111.5569)" class="st11" cx="128.8" cy="113.5" rx="53.6" ry="62.9"/>
		</g>
		<g>
			<polygon class="st12" points="134.8,68.9 129.8,127 109.9,103.4 			"/>
			<polygon class="st12" points="109.4,107.4 129.5,130.8 127.3,157 			"/>
			<polygon class="st13" points="134.8,68.9 129.8,127 152.9,113.7 			"/>
			<polygon class="st13" points="152.7,118 129.5,130.8 127.3,157 			"/>
			<polygon class="st13" points="129.8,127 109.9,103.4 131.8,103.9 			"/>
			<polygon class="st14" points="129.8,127 152.9,113.7 131.8,103.9 			"/>
		</g>
	</g>
	<g>
		<g>
			<path class="st2" d="M421.3,135.8c6.8,29.7-14.6,55.6-48,57.8c-33.2,2.3-65.6-20.1-72.4-49.8s14.6-55.6,48-57.8
				S414.5,106.2,421.3,135.8z"/>
			<g>
				<line class="st3" x1="399.7" y1="179.1" x2="390.6" y2="189.9"/>
				<line class="st3" x1="425.8" y1="154.5" x2="415.2" y2="171.8"/>
				<line class="st3" x1="382.8" y1="182.6" x2="374" y2="193.2"/>
				<line class="st3" x1="364.4" y1="182.4" x2="355.9" y2="192.7"/>
				<line class="st3" x1="332.8" y1="169.8" x2="325" y2="179.4"/>
				<line class="st3" x1="310.9" y1="143.1" x2="303.6" y2="152.2"/>
				<line class="st3" x1="306.8" y1="125.8" x2="299.8" y2="134.3"/>
				<line class="st3" x1="316.7" y1="94.3" x2="306.3" y2="109.4"/>
			</g>
		</g>
		<g>
			
				<linearGradient id="SVGID_2_" gradientUnits="userSpaceOnUse" x1="311.6176" y1="530.9433" x2="399.5956" y2="442.9652" gradientTransform="matrix(0.9899 -0.1417 -0.1417 -0.9899 84.5987 662.2007)">
				<stop  offset="0" style="stop-color:#9766FF"/>
				<stop  offset="1" style="stop-color:#6C58FF"/>
			</linearGradient>
			<path class="st15" d="M427.8,125.8c6.8,29.7-14.6,55.6-48,57.8c-33.5,2.3-65.6-20.1-72.4-49.8c-6.8-29.7,14.6-55.6,48-57.8
				S421,95.9,427.8,125.8z"/>
			<g>
				<path class="st5" d="M343.6,120c4.5-11.1,18.6-15.6,31.9-10.3c3.8,1.5,7,3.8,9.8,6.3l5.5-13.8c-3-2-6.3-4-10.1-5.5
					c-21.9-8.8-45.3-1-52.6,17.1c-5.3,12.8-0.8,27.7,10.1,38.2l6.3-15.8C342.1,131.1,341.6,125.3,343.6,120z"/>
				<path class="st5" d="M398.9,109.2l-6.8,17.4c1.3,4.3,1.3,8.8-0.3,12.8c-4.5,11.1-18.6,15.6-31.9,10.3c-3-1.3-5.5-2.8-7.8-4.5
					l-5.3,13.3c2.5,1.5,5,3,8,4c21.9,8.8,45.3,1,52.6-17.1C412,133.3,408.2,119.7,398.9,109.2z"/>
			</g>
		</g>
	</g>
	<g>
		<path class="st16" d="M482.2,497c0,9.1-7.3,16.6-16.6,16.6H31.7c-9.1,0-16.6-7.3-16.6-16.6V158.2c0-9.1,7.3-16.6,16.6-16.6h433.9
			c9.1,0,16.6,7.3,16.6,16.6L482.2,497L482.2,497z"/>
		<path class="st17" d="M30.2,141.6c-9.1,0-16.6,7.3-16.6,16.6V497c0,9.1,7.3,16.6,16.6,16.6h219.1v-372H30.2z"/>
		<g>
			<rect x="15.3" y="161.7" class="st5" width="3.8" height="1.5"/>
			<path class="st5" d="M450.2,493.7h-6.5v-1.5h6.5c0.3,0,0.8,0,1,0v1.5C451,493.7,450.5,493.7,450.2,493.7z M435.9,493.7h-7.8v-1.5
				h7.8V493.7z M420.5,493.7h-7.8v-1.5h7.8V493.7z M404.9,493.7h-7.8v-1.5h7.8V493.7z M389.6,493.7h-7.8v-1.5h7.8V493.7z M374,493.7
				h-7.8v-1.5h7.8V493.7z M358.7,493.7h-7.8v-1.5h7.8V493.7z M343.3,493.7h-7.8v-1.5h7.8V493.7z M327.7,493.7h-7.8v-1.5h7.8V493.7z
				 M312.4,493.7h-7.8v-1.5h7.8V493.7z M297,493.7h-7.8v-1.5h7.8V493.7z M281.4,493.7h-7.8v-1.5h7.8V493.7z M266.1,493.7h-7.8v-1.5
				h7.8V493.7z M250.8,493.7H243v-1.5h7.8V493.7z M235.2,493.7h-7.8v-1.5h7.8V493.7z M219.8,493.7H212v-1.5h7.8V493.7z M204.2,493.7
				h-7.8v-1.5h7.8V493.7z M188.9,493.7h-7.8v-1.5h7.8V493.7z M173.5,493.7h-7.8v-1.5h7.8V493.7z M158,493.7h-7.5v-1.5h7.8v1.5H158z
				 M142.6,493.7h-7.8v-1.5h7.8V493.7z M127.3,493.7h-7.8v-1.5h7.8V493.7z M111.7,493.7h-7.8v-1.5h7.8V493.7z M96.3,493.7h-7.8v-1.5
				h7.8V493.7z M81,493.7h-7.8v-1.5H81V493.7z M65.4,493.7h-7.8v-1.5h7.8V493.7z M50.1,493.7h-7.8v-1.5h7.8V493.7z M34.5,493.7h-7.8
				v-1.5h7.8V493.7z M459,491.2l-0.8-1.3c2-1.3,4-3,5.3-5l1.3,0.8C463.3,488,461.3,490,459,491.2z M467.3,478.1l-1.5-0.3
				c0-0.5,0-1,0-1.8v-6h1.5v6C467.6,477.1,467.6,477.6,467.3,478.1z M467.6,462.8h-1.5V455h1.5V462.8z M467.6,447.2h-1.5v-7.8h1.5
				V447.2z M467.6,431.9h-1.5v-7.8h1.5V431.9z M467.6,416.5h-1.5v-7.8h1.5V416.5z M467.6,400.9h-1.5v-7.8h1.5V400.9z M467.6,385.6
				h-1.5v-7.8h1.5V385.6z M467.6,370h-1.5v-7.8h1.5V370z M467.6,354.7h-1.5v-7.8h1.5V354.7z M467.6,339.3h-1.5v-7.8h1.5V339.3z
				 M467.6,323.7h-1.5v-7.8h1.5V323.7z M467.6,308.4h-1.5v-7.8h1.5V308.4z M467.6,293h-1.5v-7.8h1.5V293z M467.6,277.4h-1.5v-7.8
				h1.5V277.4z M467.6,262.1h-1.5v-7.8h1.5V262.1z M467.6,246.5h-1.5v-7.8h1.5V246.5z M467.6,231.2h-1.5v-7.8h1.5V231.2z
				 M467.6,215.8h-1.5V208h1.5V215.8z M467.6,200.2h-1.5v-7.8h1.5V200.2z M467.6,184.9h-1.5v-6c0-0.5,0-1,0-1.8l1.5-0.3
				c0,0.5,0,1.3,0,1.8V184.9z M463.5,170.3c-1.3-2-3.3-3.8-5.3-5l0.8-1.3c2.3,1.3,4.3,3.3,5.8,5.5L463.5,170.3z M451.2,163.3
				c-0.3,0-0.8,0-1,0h-6.5v-1.5h6.5c0.3,0,0.8,0,1,0V163.3z M435.9,163.3h-7.8v-1.5h7.8V163.3z M420.3,163.3h-7.8v-1.5h7.8V163.3z
				 M404.9,163.3h-7.8v-1.5h7.8V163.3z M389.6,163.3h-7.8v-1.5h7.8V163.3z M374,163.3h-7.8v-1.5h7.8V163.3z M358.7,163.3h-7.8v-1.5
				h7.8V163.3z M343.3,163.3h-7.8v-1.5h7.8V163.3z M327.7,163.3h-7.8v-1.5h7.8V163.3z M312.4,163.3h-7.8v-1.5h7.8V163.3z M297,163.3
				h-7.8v-1.5h7.8V163.3z M281.4,163.3h-7.8v-1.5h7.8V163.3z M266.1,163.3h-7.8v-1.5h7.8V163.3z M250.5,163.3h-7.8v-1.5h7.8V163.3z
				 M235.2,163.3h-7.8v-1.5h7.8V163.3z M219.8,163.3H212v-1.5h7.8V163.3z M204.2,163.3h-7.8v-1.5h7.8V163.3z M188.9,163.3h-7.8v-1.5
				h7.8V163.3z M173.5,163.3h-7.8v-1.5h7.8V163.3z M158,163.3h-7.5v-1.5h7.8v1.5H158z M142.6,163.3h-7.8v-1.5h7.8V163.3z
				 M127.3,163.3h-7.8v-1.5h7.8V163.3z M111.7,163.3h-7.8v-1.5h7.8V163.3z M96.3,163.3h-7.8v-1.5h7.8V163.3z M80.7,163.3h-7.8v-1.5
				h7.8V163.3z M65.4,163.3h-7.8v-1.5h7.8V163.3z M50.1,163.3h-7.8v-1.5h7.8V163.3z M34.5,163.3h-7.8v-1.5h7.8V163.3z"/>
			<rect x="15.3" y="492.2" class="st5" width="3.8" height="1.5"/>
		</g>
		<path class="st18" d="M513.6,376c0,9.1-6.5,16.6-14.6,16.6H340.3c-8,0-14.6-7.3-14.6-16.6v-77.2c0-9.1,6.5-16.6,14.6-16.6H499
			c8,0,14.6,7.3,14.6,16.6V376z"/>
		<path class="st0" d="M513.6,366.2c0,9.1-6.3,16.6-14.1,16.6H345.3c-7.8,0-14.1-7.3-14.1-16.6V289c0-9.1,6.3-16.6,14.1-16.6h154.2
			c7.8,0,14.1,7.3,14.1,16.6V366.2z"/>
		<path class="st5" d="M513.6,377h-7.8v-1.5h7.8V377z M498,377h-7.8v-1.5h7.8V377z M482.7,377h-7.8v-1.5h7.8V377z M467.1,377h-7.8
			v-1.5h7.8V377z M451.5,377h-7.8v-1.5h7.8V377z M436.1,377h-7.8v-1.5h7.8V377z M420.5,377h-7.8v-1.5h7.8V377z M405.2,377h-7.8v-1.5
			h7.8V377z M389.6,377h-7.8v-1.5h7.8V377z M374,377h-7.8v-1.5h7.8V377z M358.7,377h-4.3c-1.3,0-2.5-0.3-3.8-0.5l0.5-1.5
			c1,0.3,2,0.5,3.3,0.5h4.3V377z M344.1,371.8c-1.5-2.3-2.5-4.8-3-7.5l1.5-0.3c0.3,2.5,1.3,4.8,2.8,6.8L344.1,371.8z M342.6,356.4
			h-1.5v-7.8h1.5V356.4z M342.6,340.8h-1.5V333h1.5V340.8z M342.6,325.2h-1.5v-7.8h1.5V325.2z M342.6,309.9h-1.5v-7.8h1.5V309.9z
			 M342.8,294.5l-1.5-0.3c0.3-2.8,1.5-5.3,3-7.5l1.3,1C344.1,289.8,343.1,292,342.8,294.5z M351.4,283.7l-0.5-1.5
			c1-0.3,2.3-0.5,3.5-0.5h4.5v1.5h-4.5C353.4,283.2,352.4,283.5,351.4,283.7z M513.6,283.2H506v-1.5h7.5V283.2z M498.2,283.2h-7.8
			v-1.5h7.8V283.2z M482.9,283.2h-7.8v-1.5h7.8V283.2z M467.3,283.2h-7.8v-1.5h7.8V283.2z M451.7,283.2h-7.8v-1.5h7.8V283.2z
			 M436.4,283.2h-7.8v-1.5h7.8V283.2z M420.8,283.2H413v-1.5h7.8V283.2z M405.4,283.2h-7.8v-1.5h7.8V283.2z M389.8,283.2h-7.8v-1.5
			h7.8V283.2z M374.3,283.2h-7.5v-1.5h7.8v1.5H374.3z"/>
		<g>
			<circle class="st19" cx="393.1" cy="326.2" r="30.2"/>
			<g>
				<g>
					<defs>
						
							<ellipse id="SVGID_3_" transform="matrix(0.7071 -0.7071 0.7071 0.7071 -110.7539 371.436)" cx="393" cy="319.4" rx="30.2" ry="30.2"/>
					</defs>
					<clipPath id="SVGID_4_">
						<use xlink:href="#SVGID_3_"  style="overflow:visible;"/>
					</clipPath>
					
						<rect x="332.7" y="311.4" transform="matrix(0.7071 -0.7071 0.7071 0.7071 -115.6651 366.6931)" class="st20" width="104.1" height="23.1"/>
				</g>
				<g>
					<defs>
						
							<ellipse id="SVGID_5_" transform="matrix(0.7071 -0.7071 0.7071 0.7071 -123.137 371.4894)" cx="386.9" cy="334.4" rx="30.2" ry="30.2"/>
					</defs>
					<clipPath id="SVGID_6_">
						<use xlink:href="#SVGID_5_"  style="overflow:visible;"/>
					</clipPath>
					
						<rect x="347.6" y="334.2" transform="matrix(0.7071 -0.7071 0.7071 0.7071 -121.9016 381.5855)" class="st21" width="104.1" height="7.5"/>
				</g>
			</g>
		</g>
	</g>
</g>
</svg>
