<?xml version="1.0" encoding="utf-8"?>
<!-- Generator: Adobe Illustrator 20.0.0, SVG Export Plug-In . SVG Version: 6.00 Build 0)  -->
<svg version="1.1" id="Layer_1" xmlns="http://www.w3.org/2000/svg" xmlns:xlink="http://www.w3.org/1999/xlink" x="0px" y="0px"
	 viewBox="0 0 548.8 548.8" style="enable-background:new 0 0 548.8 548.8;" xml:space="preserve">
<style type="text/css">
	.st0{fill:url(#SVGID_1_);}
	.st1{fill:#FFFFFF;}
	.st2{fill:#00DB34;}
	.st3{fill:#FFC92B;}
	.st4{fill:#FF842F;}
	.st5{fill:#353231;}
	.st6{fill:#3D3938;}
	.st7{fill:#F2EFEF;}
	.st8{fill:#BF2026;}
	.st9{fill:#6DAE44;}
	.st10{fill:#FAAB18;}
	.st11{fill:#DB6026;}
</style>
<g>
	
		<linearGradient id="SVGID_1_" gradientUnits="userSpaceOnUse" x1="97.6232" y1="506.3768" x2="451.1765" y2="152.8232" gradientTransform="matrix(1 0 0 -1 0 604)">
		<stop  offset="0" style="stop-color:#9766FF"/>
		<stop  offset="1" style="stop-color:#6C58FF"/>
	</linearGradient>
	<circle class="st0" cx="274.4" cy="274.4" r="250"/>
	<g>
		<path class="st1" d="M131,192.4c13.3-23.1,42.9-31.1,65.9-17.8c6.5,3.8,12,9,16,14.8l16.5-28.8c-5-5-10.5-9.5-17.1-13
			c-38.1-22.1-86.8-9-108.8,29.1c-15.5,27.1-13.5,59.4,2.5,83.8l19.3-33.4C122.9,216,124.4,203.4,131,192.4z"/>
		<path class="st1" d="M241.8,177.1L221,213.2c0.8,9.3-1.3,18.8-6.3,27.6c-13.3,23.1-42.9,31.1-65.9,17.8c-5-3-9.3-6.5-13-10.8
			l-16.3,28.1c4,3.8,8.5,7,13.5,9.8c38.1,22.1,86.8,9,108.8-29.1C256.3,231,255.3,200.9,241.8,177.1z"/>
	</g>
	<g>
		<path class="st2" d="M315.8,362.9c10.5,4.5,22.6-0.3,27.1-10.8l0,0l26.6-61.2l60.7,26.3l-19.1,43.6c-1.8-1.8-4-3.3-6.5-4.5
			c-10.5-4.5-22.6,0.3-27.1,10.8c-4.5,10.5,0.3,22.6,10.8,27.1c10.5,4.5,22.6-0.3,27.1-10.8l0,0l0,0l26.6-61.2l10.3-23.8l-11.8-5.3
			l-60.7-26.3l-11.8-5.3l-10.3,23.8l-19.1,43.6c-1.8-1.8-4-3.3-6.5-4.5c-10.5-4.5-22.6,0.3-27.1,10.8
			C300.7,346.4,305.5,358.4,315.8,362.9z"/>
	</g>
	<g>
		<path class="st3" d="M326.8,306h4.8c13.5,0,14-15.3,0-15.3h-4.8v1.3c3.5,0,6.3,2.8,6.3,6.3c0,3.5-2.8,6.3-6.3,6.3V306z M216.2,306
			h110.6v-1.3l0,0c-3.5,0-6.3-2.8-6.3-6.3s2.8-6.3,6.3-6.3l0,0v-1.3c-36.9,0-73.7,0-110.6,0v1.3c3.5,0,6.3,2.8,6.3,6.3
			s-2.8,6.3-6.3,6.3V306z M211.7,306h4.8v-1.3c-3.5,0-6.3-2.8-6.3-6.3s2.8-6.3,6.3-6.3v-1.3h-4.8C197.7,290.7,198.2,306,211.7,306z"
			/>
		<circle class="st3" cx="280.2" cy="245.3" r="6.3"/>
		<path class="st3" d="M329.3,296.7l-43.6-48.6c-1-1-2.8-1.3-3.8-0.3l0,0c-1,1-1.3,2.8-0.3,3.8l43.6,48.6c1,1,2.8,1.3,3.8,0.3l0,0
			C330.3,299.5,330.3,297.7,329.3,296.7z"/>
		<circle class="st3" cx="263.1" cy="245.3" r="6.3"/>
		<path class="st3" d="M213.7,296.7l47.4-53.2c1-1,2.8-1.3,3.8-0.3l0,0c1,1,1.3,2.8,0.3,3.8l-47.4,53.2c-1,1-2.8,1.3-3.8,0.3l0,0
			C213,299.5,212.7,297.7,213.7,296.7z"/>
		<path class="st3" d="M308.5,310.5h22.3l-5.8,33.6c-1.3,7.3-4.8,12.8-16,12.8h-0.5v-10c1.5-0.8,2.8-2.3,3-4.3
			c0.5-3.8,1-7.8,1.5-11.5c0.5-3.8,1-7.8,1.5-11.5c0.3-2.5-1.8-4.8-4.5-4.8l0,0c-0.5,0-1.3,0-1.8,0.3v-4.5H308.5z M290.2,310.5h18.3
			v4.5c-2,0.8-3.5,2.5-3.8,4.5c-0.5,3.8-0.8,7.8-1.3,11.5c-0.5,3.8-0.8,7.8-1.3,11.5c-0.3,2.5,1.5,4.8,4,4.8l0,0
			c0.8,0,1.5-0.3,2.3-0.5v10h-18.3v-9.8c2-0.5,3.5-2.3,3.8-4.5c0.3-3.8,0.5-7.8,1-11.5c0.3-3.8,0.5-7.8,1-11.5
			c0.3-2.5-2-4.8-4.8-4.8l0,0c-0.3,0-0.5,0-0.8,0v-4.3H290.2z M271.6,310.5h18.6v4.3c-2.5,0.3-4.5,2.3-4.5,4.5
			c-0.3,3.8-0.3,7.8-0.5,11.5s-0.3,7.8-0.5,11.5c0,2.5,1.8,4.8,4.3,4.8l0,0c0.5,0,0.8,0,1.3-0.3v9.8h-18.6v-9.5c2.5,0,4.5-2,4.8-4.8
			c0-3.8,0-7.8,0.3-11.5c0-3.8,0-7.8,0.3-11.5c0-2.5-2.3-4.8-5-4.8l0,0l0,0v-4H271.6z M253.1,310.5h18.6v4.3c-2.8,0-5,2-5,4.8
			c0,3.8,0,7.8,0.3,11.5c0,3.8,0,7.8,0.3,11.5c0,2.5,2.3,4.8,4.8,4.8l0,0l0,0v9.5h-18.6v-9.8c0.5,0,0.8,0.3,1.3,0.3l0,0
			c2.5,0,4.5-2,4.3-4.8c-0.3-3.8-0.3-7.8-0.5-11.5s-0.3-7.8-0.5-11.5c0-2.3-2-4.3-4.5-4.5v-4.5H253.1z M234.8,310.5h18.3v4.3
			c-0.3,0-0.5,0-0.8,0l0,0c-2.8,0-5,2-4.8,4.8c0.3,3.8,0.5,7.8,1,11.5c0.3,3.8,0.5,7.8,0.8,11.5c0.3,2.3,1.8,4,3.8,4.5v9.8h-18.3
			v-10c0.8,0.3,1.5,0.5,2.3,0.5l0,0c2.5,0,4.3-2,4-4.8c-0.5-3.8-0.8-7.8-1.3-11.5c-0.5-3.8-0.8-7.8-1.3-11.5c-0.3-2-1.8-3.8-3.8-4.5
			V310.5z M234,356.9c-11,0-14.5-5.5-16-12.8l-5.8-33.6h22.3v4.5c-0.5-0.3-1.3-0.3-1.8-0.3l0,0c-2.8,0-4.8,2-4.5,4.8
			c0.5,3.8,1,7.8,1.5,11.5c0.5,3.8,1,7.8,1.5,11.5c0.3,1.8,1.5,3.5,3,4.3v10H234z"/>
	</g>
	<g>
		<polygon class="st4" points="227,439.1 201.2,408.6 214.7,397.3 185.1,362.2 159.1,384.2 243.8,485 269.9,463 240.5,427.9 		"/>
		
			<rect x="218.6" y="403.1" transform="matrix(0.7651 -0.6439 0.6439 0.7651 -215.1093 241.6441)" class="st4" width="10" height="25.1"/>
		<path class="st4" d="M306.7,388l-20.8-24.6l-8.5,7.3l13.5,16l-10.5,8.8l-13.5-16l-33.6,28.1l12.8,15.3l29.6,35.1l33.6-28.1
			L287.7,404L306.7,388z M285.9,363.4l-20.8-24.6l-19.1,16l-21.6-25.8l-33.6,28.1l29.6,35.1l12.8,15.3l33.6-28.1l-13.5-16l0,0
			l10.5-8.8l13.5,16L285.9,363.4z"/>
	</g>
	<g>
		<path class="st5" d="M365.2,132.2c-6.5,5.8-18.3,5.8-27.6,5.8c-8,0-13.8,1-16.8,4.3c-0.8,1-1.8,2.5-1.5,5c0.5,6.5,2.5,11,4.5,13.8
			l-5.3,2.3c-1.3,0.5-1.8,2-1.3,3.5l2.3,5.3c0.5,1.5,2,2,3.3,1.5l15.5-6.5c1.3-0.5,1.8-2,1.3-3.5l-2.3-5.3c-0.5-1.5-2-2-3.3-1.5
			l-5.3,2.3c-1.5-2-3.5-6-4-12.3c0-0.5,0-0.8,0.3-1c1.5-1.5,7.8-1.5,13.3-1.5c10.3,0,22.8-1,30.8-8.3L365.2,132.2z"/>
		<path class="st6" d="M374.2,146.5l-94.8,39.1l0,0c-22.6,11-33.1,37.6-23.3,61.2c10,24.3,38.1,36.1,62.4,26.1
			c14-5.8,23.8-17.6,27.8-31.1l22.6-9.3c12.3,7,27.6,8.3,41.6,2.5c24.3-10,36.1-38.1,26.1-62.4C426.6,148,398.5,136.5,374.2,146.5z"
			/>
		
			<ellipse transform="matrix(0.9247 -0.3807 0.3807 0.9247 -42.7346 164.2323)" class="st7" cx="393.8" cy="190.1" rx="32.8" ry="32.8"/>
		<g>
			<g>
				
					<ellipse transform="matrix(0.9247 -0.3807 0.3807 0.9247 -46.3675 158.8047)" class="st8" cx="378.3" cy="196.6" rx="8.5" ry="8.5"/>
				
					<ellipse transform="matrix(0.9247 -0.3807 0.3807 0.9247 -39.0763 169.6274)" class="st9" cx="409.3" cy="183.6" rx="8.5" ry="8.5"/>
			</g>
			<g>
				
					<ellipse transform="matrix(0.9247 -0.3807 0.3807 0.9247 -36.4405 159.9848)" class="st10" cx="386.2" cy="172.1" rx="8.5" ry="8.5"/>
				
					<ellipse transform="matrix(0.9247 -0.3807 0.3807 0.9247 -48.9722 168.3161)" class="st11" cx="401" cy="208" rx="8.5" ry="8.5"/>
			</g>
		</g>
		<g>
			
				<ellipse transform="matrix(0.9247 -0.3807 0.3807 0.9247 -64.5649 131.5195)" class="st7" cx="300.2" cy="229" rx="32.8" ry="32.8"/>
			<path class="st5" d="M317.3,217.5l-14.5,6l-6-14.5c-0.5-1.3-2-1.8-3.5-1.3l-2.8,1c-1.5,0.5-2.3,2-1.8,3.5l6,14.5l-14.5,6
				c-1.3,0.5-1.8,2-1.3,3.5l1,2.8c0.5,1.5,2,2.3,3.5,1.8l14.5-6l6,14.5c0.5,1.3,2,1.8,3.5,1.3l2.8-1c1.5-0.5,2.3-2,1.8-3.5l-6-14.5
				l14.5-6c1.3-0.5,1.8-2,1.3-3.5l-1-2.8C320,217.7,318.5,217,317.3,217.5z"/>
		</g>
		<path class="st11" d="M336.6,191.2c1,2.8-0.3,5.8-3,7l-2,0.8c-2.8,1-5.8-0.3-7-3l-4.5-11.3c-1-2.8,0.3-5.8,3-7l2-0.8
			c2.8-1,5.8,0.3,7,3L336.6,191.2z"/>
		<path class="st9" d="M354.1,184.1c1,2.8-0.3,5.8-3,7l-2,0.8c-2.8,1-5.8-0.3-7-3l-4.5-11.3c-1-2.8,0.3-5.8,3-7l2-0.8
			c2.8-1,5.8,0.3,7,3L354.1,184.1z"/>
		
			<ellipse transform="matrix(0.9247 -0.3807 0.3807 0.9247 -53.7269 147.6463)" class="st10" cx="346.4" cy="209.6" rx="8.5" ry="8.5"/>
	</g>
</g>
</svg>
