<?xml version="1.0" encoding="utf-8"?>
<!-- Generator: Adobe Illustrator 20.0.0, SVG Export Plug-In . SVG Version: 6.00 Build 0)  -->
<svg version="1.1" id="Layer_1" xmlns="http://www.w3.org/2000/svg" xmlns:xlink="http://www.w3.org/1999/xlink" x="0px" y="0px"
	 viewBox="0 0 700 700" style="enable-background:new 0 0 700 700;" xml:space="preserve">
<style type="text/css">
	.st0{fill:#8FCCD1;stroke:#1F9B8C;stroke-width:2;stroke-miterlimit:10;}
	.st1{fill:none;stroke:#1F9B8C;stroke-width:2;stroke-linecap:round;stroke-miterlimit:10;}
	.st2{fill:#44BCB3;stroke:#1F9B8C;stroke-width:2;stroke-miterlimit:10;}
	.st3{fill:#8A92B2;}
	.st4{fill:#62688F;}
	.st5{fill:#454A75;}
	.st6{fill:#C978EA;stroke:#7B34A5;stroke-width:2;stroke-miterlimit:10;}
	.st7{fill:none;stroke:#7B34A5;stroke-width:2;stroke-linecap:round;stroke-miterlimit:10;}
	.st8{fill:url(#SVGID_1_);stroke:#7B34A5;stroke-width:2;stroke-miterlimit:10;}
	.st9{fill:#FFFFFF;}
	.st10{fill:url(#SVGID_2_);stroke:#7B34A5;stroke-width:2;stroke-miterlimit:10;}
	.st11{fill:#F2B675;stroke:#CE7525;stroke-width:2;stroke-miterlimit:10;}
	.st12{fill:#F7931A;stroke:#CE7525;stroke-width:2;stroke-miterlimit:10;}
	.st13{fill:#F2B675;stroke:#B56C1C;stroke-width:2;stroke-linecap:round;stroke-miterlimit:10;}
	.st14{fill:none;stroke:#8A28B2;stroke-width:22;stroke-linecap:round;stroke-linejoin:round;stroke-miterlimit:10;}
</style>
<g>
	<g>
		<g>
			<path class="st0" d="M521.5,394.8c-5,37.2-39.4,58.4-77,47.5c-37.6-11-64-50-59-87.2c5-37.2,39.4-58.4,77-47.5
				C500,318.5,526.4,357.6,521.5,394.8z"/>
			<g>
				<line class="st1" x1="503.8" y1="430" x2="517.5" y2="416.4"/>
				<line class="st1" x1="420" y1="412" x2="409.4" y2="421.1"/>
				<line class="st1" x1="444.9" y1="429.1" x2="433.9" y2="438.3"/>
				<line class="st1" x1="463.5" y1="435.2" x2="454.2" y2="444.2"/>
				<line class="st1" x1="486.3" y1="434.2" x2="477.2" y2="443.8"/>
				<line class="st1" x1="398.2" y1="376.5" x2="387.9" y2="385"/>
				<line class="st1" x1="398" y1="333.8" x2="388.7" y2="341.8"/>
				<line class="st1" x1="402.5" y1="320.4" x2="417.1" y2="306.6"/>
			</g>
		</g>
		<g>
			
				<ellipse transform="matrix(0.7578 -0.6525 0.6525 0.7578 -126.284 390.7345)" class="st2" cx="463.2" cy="365.5" rx="63.7" ry="74.6"/>
		</g>
		<g>
			<polygon class="st3" points="470.2,312.6 464.4,381.6 440.6,353.4 			"/>
			<polygon class="st3" points="440.2,358.3 464,386.1 461.4,417 			"/>
			<polygon class="st4" points="470.2,312.6 464.4,381.6 491.9,365.9 			"/>
			<polygon class="st4" points="491.5,370.8 464,386.1 461.4,417 			"/>
			<polygon class="st4" points="464.4,381.6 440.6,353.4 466.7,354.1 			"/>
			<polygon class="st5" points="464.4,381.6 491.9,365.9 466.7,354.1 			"/>
		</g>
	</g>
	<g>
		<g>
			<path class="st6" d="M149.6,346.5c8.1,35.3-17.4,66.1-57,68.7s-78.1-23.8-86.2-59.1s17.4-66.1,57-68.7
				C103,284.7,141.6,311.1,149.6,346.5z"/>
			<g>
				<line class="st7" x1="124" y1="397.9" x2="113.3" y2="410.8"/>
				<line class="st7" x1="154.9" y1="368.6" x2="142.3" y2="389.1"/>
				<line class="st7" x1="103.8" y1="402.2" x2="93.5" y2="414.5"/>
				<line class="st7" x1="82" y1="401.7" x2="72" y2="413.9"/>
				<line class="st7" x1="44.5" y1="387" x2="35.3" y2="398.1"/>
				<line class="st7" x1="18.6" y1="355.3" x2="9.9" y2="365.8"/>
				<line class="st7" x1="13.7" y1="334.6" x2="5.2" y2="344.8"/>
				<line class="st7" x1="25.5" y1="297.2" x2="13.1" y2="315"/>
			</g>
		</g>
		<g>
			
				<linearGradient id="SVGID_1_" gradientUnits="userSpaceOnUse" x1="23.3924" y1="268.441" x2="127.8959" y2="372.9445" gradientTransform="matrix(0.9899 -0.1417 0.1417 0.9899 -34.4349 32.4975)">
				<stop  offset="0" style="stop-color:#9766FF"/>
				<stop  offset="1" style="stop-color:#6C58FF"/>
			</linearGradient>
			<path class="st8" d="M157.4,334.4c8.1,35.3-17.4,66.1-57,68.7C61,405.8,22.4,379.4,14.3,344s17.4-66.1,57-68.7
				C110.8,272.6,149.4,299.1,157.4,334.4z"/>
			<g>
				<path class="st9" d="M57.4,327.8c5.2-13.1,22.2-18.6,37.9-12.3c4.5,1.8,8.4,4.4,11.5,7.4l6.5-16.3c-3.6-2.5-7.6-4.7-11.9-6.4
					c-25.9-10.4-53.8-1.3-62.5,20.3c-6.1,15.3-0.9,32.8,12,45.4l7.5-18.8C55.6,340.9,54.9,334.1,57.4,327.8z"/>
				<path class="st9" d="M123,314.9l-8.2,20.5c1.6,5,1.5,10.3-0.4,15.2c-5.2,13.1-22.2,18.6-37.9,12.3c-3.4-1.4-6.5-3.2-9.2-5.4
					l-6.4,15.9c2.9,1.8,6.1,3.4,9.4,4.8c25.9,10.4,53.8,1.3,62.5-20.3C138.5,343.6,134.2,327.3,123,314.9z"/>
			</g>
		</g>
	</g>
	<g>
		<g>
			<path class="st6" d="M685.7,415.3c8.1,35.3-17.4,66.1-57,68.7s-78.1-23.8-86.2-59.1c-8.1-35.3,17.4-66.1,57-68.7
				C639,353.5,677.6,379.9,685.7,415.3z"/>
			<g>
				<line class="st7" x1="660.1" y1="466.7" x2="649.4" y2="479.6"/>
				<line class="st7" x1="690.9" y1="437.4" x2="678.4" y2="457.9"/>
				<line class="st7" x1="639.8" y1="471" x2="629.6" y2="483.3"/>
				<line class="st7" x1="618.1" y1="470.6" x2="608" y2="482.7"/>
				<line class="st7" x1="580.6" y1="455.8" x2="571.4" y2="466.9"/>
				<line class="st7" x1="554.6" y1="424.1" x2="545.9" y2="434.6"/>
				<line class="st7" x1="549.7" y1="403.4" x2="541.3" y2="413.6"/>
				<line class="st7" x1="561.6" y1="366" x2="549.2" y2="383.8"/>
			</g>
		</g>
		<g>
			
				<linearGradient id="SVGID_2_" gradientUnits="userSpaceOnUse" x1="544.302" y1="412.5016" x2="648.8055" y2="517.0051" gradientTransform="matrix(0.9899 -0.1417 0.1417 0.9899 -34.4349 32.4975)">
				<stop  offset="0" style="stop-color:#9766FF"/>
				<stop  offset="1" style="stop-color:#6C58FF"/>
			</linearGradient>
			<path class="st10" d="M693.5,403.2c8.1,35.3-17.4,66.1-57,68.7c-39.5,2.7-78.1-23.8-86.2-59.1c-8.1-35.3,17.4-66.1,57-68.7
				C646.9,341.4,685.5,367.9,693.5,403.2z"/>
			<g>
				<path class="st9" d="M593.5,396.6c5.2-13.1,22.2-18.6,37.9-12.3c4.5,1.8,8.4,4.4,11.5,7.4l6.5-16.3c-3.6-2.5-7.6-4.7-11.9-6.4
					c-25.9-10.4-53.8-1.3-62.5,20.3c-6.1,15.3-0.9,32.8,12,45.4l7.5-18.8C591.6,409.7,591,402.9,593.5,396.6z"/>
				<path class="st9" d="M659,383.7l-8.2,20.5c1.6,5,1.5,10.3-0.4,15.2c-5.2,13.1-22.2,18.6-37.9,12.3c-3.4-1.4-6.5-3.2-9.2-5.4
					l-6.4,15.9c2.9,1.8,6.1,3.4,9.4,4.8c25.9,10.4,53.8,1.3,62.5-20.3C674.6,412.4,670.2,396.1,659,383.7z"/>
			</g>
		</g>
	</g>
	<g>
		<path class="st11" d="M635.3,353.8c-6.3,37.9-42.4,59.9-80.6,49.2c-38.2-10.8-64-50.2-57.7-88.1c6.3-37.9,42.4-59.9,80.6-49.2
			C615.8,276.4,641.6,315.9,635.3,353.8z"/>
		<g>
			<path class="st12" d="M645.8,343.8c-6.3,37.9-42.4,59.9-80.6,49.2c-38.2-10.8-64-50.2-57.7-88.1c6.3-37.9,42.4-59.9,80.6-49.2
				C626.2,266.4,652.1,305.9,645.8,343.8z"/>
			<path class="st9" d="M605.4,340.7c-0.6-2.3-1.5-4.3-2.8-6.2c-1.3-1.9-3-3.5-5-5c-2-1.5-4.3-2.7-6.7-3.5l0.1-0.4
				c4.1,0.3,7.6-0.5,10.5-2.5c2.8-2,4.6-4.9,5.3-8.9c0.7-3.9,0.3-7.3-1.1-10.1c-1.4-2.9-3.4-5.3-6.1-7.3c-2.6-2-5.7-3.7-9.1-5.1
				c0,0-0.1,0-0.1,0l1.8-10.8l-8.5-2.4l-1.7,10.3c-0.6-0.2-1.1-0.4-1.7-0.5l-4.3-1.2l1.7-10.2l-8.5-2.4l-1.7,10.2l-16-4.5
				c-0.6,1.3-0.8,2.7-0.7,4.2l8.5,5l-9.7,58.2l-9.3,0c-0.6,1.3-0.8,2.7-0.7,4.2l16,4.5l-1.6,9.7l8.5,2.4l1.6-9.7l6,1.7l-1.6,9.7
				l8.5,2.4l1.7-10.2c1.2,0.2,2.3,0.3,3.5,0.4c4,0.4,7.6,0.2,10.8-0.6c3.3-0.8,6-2.3,8.3-4.5c2.3-2.2,3.7-5.4,4.4-9.6
				C606,345.3,605.9,342.9,605.4,340.7z M578.6,295.6c4.8,1.4,8.1,3.3,9.9,5.8c1.8,2.5,2.4,5.6,1.8,9.4c-0.6,3.8-2.2,6.3-4.6,7.6
				c-2.4,1.3-6.1,1.3-10.9-0.1l-4-1.1l3.8-22.6L578.6,295.6z M586.9,350.1c-1.1,1.5-2.5,2.5-4.1,3.1c-1.6,0.6-3.4,0.8-5.5,0.6
				c-2.1-0.2-4.3-0.6-6.7-1.3l-5.4-1.5l4.4-26.2l5.4,1.5c2.4,0.7,4.6,1.5,6.6,2.4c2,0.9,3.6,2.1,4.9,3.5c1.3,1.4,2.2,3.1,2.7,5
				c0.6,1.9,0.6,4.2,0.2,6.9C588.8,346.6,588.1,348.7,586.9,350.1z"/>
		</g>
		<g>
			<line class="st13" x1="616" y1="389.9" x2="630.5" y2="375.9"/>
			<line class="st13" x1="530.5" y1="372.5" x2="519.4" y2="381.8"/>
			<line class="st13" x1="555.5" y1="389.6" x2="544" y2="399.1"/>
			<line class="st13" x1="574.5" y1="395.6" x2="564.6" y2="404.9"/>
			<line class="st13" x1="597.9" y1="394.3" x2="588.2" y2="404.2"/>
			<line class="st13" x1="509.3" y1="336.5" x2="498.5" y2="345.3"/>
			<line class="st13" x1="510.5" y1="293.1" x2="500.7" y2="301.4"/>
			<line class="st13" x1="515.6" y1="279.4" x2="531.1" y2="265.2"/>
		</g>
	</g>
	<g>
		<path class="st14" d="M387.1,245.7l76.9-11.1c-159.7-161.9-305.9-12.5-310.7-18.7"/>
		<line class="st14" x1="458" y1="163.6" x2="464.1" y2="234.6"/>
	</g>
	<g>
		<path class="st14" d="M228.9,455.1l-76.8,12c161.4,160.1,306,9.3,310.9,15.3"/>
		<line class="st14" x1="158.9" y1="538" x2="152.1" y2="467.1"/>
	</g>
</g>
</svg>
