<?xml version="1.0" encoding="utf-8"?>
<!-- Generator: Adobe Illustrator 20.0.0, SVG Export Plug-In . SVG Version: 6.00 Build 0)  -->
<svg version="1.1" id="Layer_1" xmlns="http://www.w3.org/2000/svg" xmlns:xlink="http://www.w3.org/1999/xlink" x="0px" y="0px"
	 viewBox="0 0 700 700" style="enable-background:new 0 0 700 700;" xml:space="preserve">
<style type="text/css">
	.st0{fill:#FFFFFF;stroke:#A5A5A5;stroke-width:5;stroke-miterlimit:10;}
	.st1{fill:#C6C6C6;}
	.st2{fill:none;stroke:#C1C1C1;stroke-width:4;stroke-miterlimit:10;}
	.st3{fill:#AFAFAF;}
	.st4{font-family:'SanFranciscoText-Semibold';}
	.st5{font-size:86.8085px;}
	.st6{letter-spacing:8;}
	.st7{fill:url(#SVGID_1_);}
	.st8{fill:#FFFFFF;}
	.st9{fill:#FFFFFF;stroke:#9B9B9B;stroke-width:4;stroke-linecap:round;stroke-linejoin:round;stroke-miterlimit:10;}
	.st10{fill:#54D3CA;}
</style>
<g>
	<g>
		<rect x="337.4" y="85.9" class="st0" width="357.6" height="528.3"/>
		<rect x="369.6" y="140.8" class="st1" width="60.4" height="53.8"/>
		<rect x="455.7" y="160.7" class="st1" width="201.2" height="14.1"/>
		<rect x="369.6" y="227.1" class="st1" width="60.4" height="53.8"/>
		<rect x="455.7" y="247" class="st1" width="201.2" height="14.1"/>
		<rect x="369.6" y="422.9" class="st1" width="60.4" height="53.8"/>
		<rect x="455.7" y="442.7" class="st1" width="201.2" height="14.1"/>
		<rect x="369.6" y="509.2" class="st1" width="60.4" height="53.8"/>
		<rect x="455.7" y="529" class="st1" width="201.2" height="14.1"/>
		<rect x="369.6" y="298.2" class="st2" width="287.2" height="107"/>
		<text transform="matrix(1 0 0 1 417.1543 382.5166)" class="st3 st4 st5 st6">ADS</text>
	</g>
	<g>
		<g>
			<linearGradient id="SVGID_1_" gradientUnits="userSpaceOnUse" x1="195.2241" y1="211.3979" x2="265.1179" y2="281.2917">
				<stop  offset="0" style="stop-color:#9766FF"/>
				<stop  offset="1" style="stop-color:#6C58FF"/>
			</linearGradient>
			<circle class="st7" cx="230.2" cy="246.3" r="49.4"/>
			<g>
				<path class="st8" d="M212.6,236.2c5.6-9.7,18-13,27.7-7.4c2.8,1.6,5,3.8,6.7,6.3l7-12.1c-2.1-2.1-4.4-4-7.1-5.5
					c-16-9.2-36.4-3.8-45.6,12.2c-6.6,11.4-5.7,25,1.1,35.2l8.1-14C209.3,246.1,209.9,240.8,212.6,236.2z"/>
				<path class="st8" d="M259.2,229.7l-8.8,15.2c0.3,3.9-0.6,7.9-2.7,11.6c-5.6,9.7-18,13-27.7,7.4c-2.1-1.2-3.9-2.8-5.4-4.6
					l-6.8,11.8c1.7,1.5,3.6,2.9,5.7,4.1c16,9.2,36.4,3.8,45.6-12.2C265.3,252.4,264.9,239.7,259.2,229.7z"/>
			</g>
		</g>
		<g>
			<path class="st9" d="M63.4,201.7c0,0,41.5,0,41.5,0c13.4-9.4,26.9-18.7,40.2-28.2c11.4-8,24.7-3.7,36.3,1.2
				c12.4,5.2,24.2,12.7,33,23c0.2,0.2,0.4,0.5,0.6,0.7c0,0-16.4,3.3-24.5,19.1c0,0-25.1,0-25.1,0c17.1,0,34.1,0,51.2,0
				c5.6,0,8.2,0.7,12.1,4.8c2.4,2.5,4.7,5.4,6,8.6c2.1,5,1.1,10.2-2.1,14.4c-4,5.2-8.4,7.7-14.9,7.6c-2.6,0-5.3,0-7.9,0
				c-7.8,0-15.6,0-23.5,0c-20.6,0-41.1,0-61.7,0c-17,0-34,0-51,0c-3.4,0-6.9,0-10.3,0V201.7z"/>
			<rect x="5" y="182" class="st10" width="59.5" height="86.8"/>
			<path class="st8" d="M35.7,207.7h-1.5c-4.4,0-8-3.6-8-8v-1.5c0-4.4,3.6-8,8-8h1.5c4.4,0,8,3.6,8,8v1.5
				C43.7,204.1,40.1,207.7,35.7,207.7z"/>
		</g>
	</g>
</g>
</svg>
