<?xml version="1.0" encoding="utf-8"?>
<!-- Generator: Adobe Illustrator 20.0.0, SVG Export Plug-In . SVG Version: 6.00 Build 0)  -->
<svg version="1.1" id="Layer_1" xmlns="http://www.w3.org/2000/svg" xmlns:xlink="http://www.w3.org/1999/xlink" x="0px" y="0px"
	 viewBox="0 0 1590 506" style="enable-background:new 0 0 1590 506;" xml:space="preserve">
<style type="text/css">
	.st0{fill:none;stroke:#8C8C8C;stroke-miterlimit:10;}
	.st1{fill:none;stroke:#B2B2B2;stroke-width:0.5;stroke-miterlimit:10;}
	.st2{fill:#CD00FF;}
	.st3{fill:#8700A8;}
	.st4{font-family:proxima-nova,sans-serif;}
	.st5{font-size:23px;}
	.st6{font-size:25px;}
	.st7{fill:#727272;}
	.st8{fill:none;stroke:#6D6D6D;stroke-miterlimit:10;}
	.st9{fill:#FFFFFF;}
	.st10{font-size:14px;}
</style>
<g>
	<line class="st0" x1="44.3" y1="375.6" x2="1545.7" y2="375.6"/>
	<line class="st1" x1="44.3" y1="337" x2="1545.7" y2="337"/>
	<line class="st1" x1="44.3" y1="298" x2="1545.7" y2="298"/>
	<line class="st1" x1="44.3" y1="261" x2="1545.7" y2="261"/>
	<line class="st1" x1="44.3" y1="222" x2="1545.7" y2="222"/>
	<line class="st1" x1="44.3" y1="184.7" x2="1545.7" y2="184.7"/>
	<line class="st1" x1="44.3" y1="145.7" x2="1545.7" y2="145.7"/>
	<line class="st1" x1="44.3" y1="106.7" x2="1545.7" y2="106.7"/>
	<rect x="73.4" y="268.2" class="st2" width="90.9" height="107.4"/>
	<rect x="239.4" y="268.2" class="st2" width="90.9" height="107.4"/>
	<rect x="406.7" y="268.2" class="st2" width="90.9" height="107.4"/>
	<rect x="580.4" y="268.2" class="st2" width="90.9" height="107.4"/>
	<rect x="746.4" y="268.2" class="st2" width="90.9" height="107.4"/>
	<rect x="913.7" y="268.2" class="st2" width="90.9" height="107.4"/>
	<rect x="1086.4" y="268.2" class="st2" width="90.9" height="107.4"/>
	<rect x="1252.4" y="268.2" class="st2" width="90.9" height="107.4"/>
	<rect x="1419.7" y="268.2" class="st2" width="90.9" height="107.4"/>
	<path class="st3" d="M155.6,90H82.2c-4.8,0-8.8,11.5-8.8,25.5v152.6h90.9V115.6C164.3,101.5,160.4,90,155.6,90z"/>
	<g>
		<text transform="matrix(1 0 0 1 87.2915 56.8416)"><tspan x="0" y="0" class="st3 st4 st5">+200%</tspan><tspan x="1.8" y="20" class="st3 st4 st5">Bonus</tspan></text>
	</g>
	<g>
		<text transform="matrix(1 0 0 1 79.213 411.4882)" class="st4 st6">wave 1</text>
	</g>
	<g>
		<text transform="matrix(1 0 0 1 80.7438 455.9853)" class="st7 st4 st5">100 ETH</text>
	</g>
	<line class="st8" x1="74.7" y1="424.2" x2="163" y2="424.2"/>
	<path class="st3" d="M321.6,134h-73.4c-4.8,0-8.8,8.7-8.8,19.2v114.9h90.9V153.3C330.3,142.7,326.4,134,321.6,134z"/>
	<g>
		<text transform="matrix(1 0 0 1 254.5708 98.1749)"><tspan x="0" y="0" class="st3 st4 st5">+150%</tspan><tspan x="0.5" y="20" class="st3 st4 st5">Bonus</tspan></text>
	</g>
	<g>
		<text transform="matrix(1 0 0 1 243.8516 411.4882)" class="st4 st6">wave 2</text>
	</g>
	<g>
		<text transform="matrix(1 0 0 1 245.6548 455.9853)" class="st7 st4 st5">200 ETH</text>
	</g>
	<line class="st8" x1="240.7" y1="424.2" x2="329" y2="424.2"/>
	<path class="st3" d="M488.9,171h-73.4c-4.8,0-8.8,6.3-8.8,13.9v83.2h90.9V185C497.7,177.3,493.7,171,488.9,171z"/>
	<g>
		<text transform="matrix(1 0 0 1 421.7137 134.0475)"><tspan x="0" y="0" class="st3 st4 st5">+100%</tspan><tspan x="0.7" y="20" class="st3 st4 st5">Bonus</tspan></text>
	</g>
	<g>
		<text transform="matrix(1 0 0 1 411.0199 411.4882)" class="st4 st6">wave 3</text>
	</g>
	<g>
		<text transform="matrix(1 0 0 1 413.4276 455.9853)" class="st7 st4 st5">750 ETH</text>
	</g>
	<line class="st8" x1="408.1" y1="424.2" x2="496.3" y2="424.2"/>
	<path class="st3" d="M662.6,201.1h-73.4c-4.8,0-8.8,4.3-8.8,9.6v57.5h90.9v-57.5C671.3,205.5,667.4,201.1,662.6,201.1z"/>
	<g>
		<text transform="matrix(1 0 0 1 600.37 165.1749)"><tspan x="0" y="0" class="st3 st4 st5">+50%</tspan><tspan x="-4.3" y="20" class="st3 st4 st5">Bonus</tspan></text>
	</g>
	<g>
		<text transform="matrix(1 0 0 1 584.4425 411.4882)" class="st4 st6">wave 4</text>
	</g>
	<g>
		<text transform="matrix(1 0 0 1 577.7975 455.9853)" class="st7 st4 st5">2,000 ETH</text>
	</g>
	<line class="st8" x1="581.7" y1="424.2" x2="670" y2="424.2"/>
	<path class="st3" d="M828.6,219.6h-73.4c-4.8,0-8.8,3.1-8.8,7v41.6h90.9v-41.6C837.3,222.8,833.4,219.6,828.6,219.6z"/>
	<g>
		<text transform="matrix(1 0 0 1 766.6678 180.1747)"><tspan x="0" y="0" class="st3 st4 st5">+35%</tspan><tspan x="-4.6" y="20" class="st3 st4 st5">Bonus</tspan></text>
	</g>
	<g>
		<text transform="matrix(1 0 0 1 750.5527 411.4882)" class="st4 st6">wave 5</text>
	</g>
	<g>
		<text transform="matrix(1 0 0 1 743.5581 455.9853)" class="st7 st4 st5">5,000 ETH</text>
	</g>
	<line class="st8" x1="747.7" y1="424.2" x2="836" y2="424.2"/>
	<path class="st3" d="M995.9,234.7h-73.4c-4.8,0-8.8,2.2-8.8,4.8v28.7h90.9v-28.7C1004.7,236.8,1000.7,234.7,995.9,234.7z"/>
	<g>
		<text transform="matrix(1 0 0 1 934.1334 201.1267)"><tspan x="0" y="0" class="st3 st4 st5">+25%</tspan><tspan x="-4.8" y="20" class="st3 st4 st5">Bonus</tspan></text>
	</g>
	<g>
		<text transform="matrix(1 0 0 1 917.6908 411.4882)" class="st4 st6">wave 6</text>
	</g>
	<g>
		<text transform="matrix(1 0 0 1 905.9012 455.9853)" class="st7 st4 st5">10,000 ETH</text>
	</g>
	<line class="st8" x1="915.1" y1="424.2" x2="1003.3" y2="424.2"/>
	<path class="st3" d="M1168.6,243.9h-73.4c-4.8,0-8.8,1.6-8.8,3.5v20.8h90.9v-20.8C1177.3,245.5,1173.4,243.9,1168.6,243.9z"/>
	<g>
		<text transform="matrix(1 0 0 1 1107.8887 205.1749)"><tspan x="0" y="0" class="st3 st4 st5">+15%</tspan><tspan x="-5.8" y="20" class="st3 st4 st5">Bonus</tspan></text>
	</g>
	<g>
		<text transform="matrix(1 0 0 1 1091.1624 411.4882)" class="st4 st6">wave 7</text>
	</g>
	<g>
		<text transform="matrix(1 0 0 1 1078.5681 455.9853)" class="st7 st4 st5">10,000 ETH</text>
	</g>
	<line class="st8" x1="1087.7" y1="424.2" x2="1176" y2="424.2"/>
	<path class="st3" d="M1334.6,253h-73.4c-4.8,0-8.8,1-8.8,2.2v13h90.9v-13C1343.3,254,1339.4,253,1334.6,253z"/>
	<g>
		<text transform="matrix(1 0 0 1 1273.6982 215.6267)"><tspan x="0" y="0" class="st3 st4 st5">+10%</tspan><tspan x="-5.7" y="20" class="st3 st4 st5">Bonus</tspan></text>
	</g>
	<g>
		<text transform="matrix(1 0 0 1 1256.2773 411.4882)" class="st4 st6">wave 8</text>
	</g>
	<g>
		<text transform="matrix(1 0 0 1 1244.5679 455.9853)" class="st7 st4 st5">10,000 ETH</text>
	</g>
	<line class="st8" x1="1253.7" y1="424.2" x2="1342" y2="424.2"/>
	<path class="st3" d="M1501.9,262h-73.4c-4.8,0-8.8,0.4-8.8,0.9v5.3h90.9v-5.3C1510.7,262.4,1506.7,262,1501.9,262z"/>
	<g>
		<text transform="matrix(1 0 0 1 1446.0222 226.8416)"><tspan x="0" y="0" class="st3 st4 st5">+5%</tspan><tspan x="-10.6" y="20" class="st3 st4 st5">Bonus</tspan></text>
	</g>
	<g>
		<text transform="matrix(1 0 0 1 1423.6968 411.4882)" class="st4 st6">wave 9</text>
	</g>
	<g>
		<text transform="matrix(1 0 0 1 1411.9014 455.9853)" class="st7 st4 st5">10,000 ETH</text>
	</g>
	<line class="st8" x1="1421.1" y1="424.2" x2="1509.3" y2="424.2"/>
	<text transform="matrix(1 0 0 1 99.4763 310.9788)"><tspan x="0" y="0" class="st9 st4 st10">1 ETH </tspan><tspan x="13.6" y="15" class="st9 st4 st10">= </tspan><tspan x="-19.6" y="30" class="st9 st4 st10">20,000 OBR</tspan></text>
	<text transform="matrix(1 0 0 1 265.4771 310.9788)"><tspan x="0" y="0" class="st9 st4 st10">1 ETH </tspan><tspan x="13.6" y="15" class="st9 st4 st10">= </tspan><tspan x="-19.6" y="30" class="st9 st4 st10">20,000 OBR</tspan></text>
	<text transform="matrix(1 0 0 1 432.8099 310.9788)"><tspan x="0" y="0" class="st9 st4 st10">1 ETH </tspan><tspan x="13.6" y="15" class="st9 st4 st10">= </tspan><tspan x="-19.6" y="30" class="st9 st4 st10">20,000 OBR</tspan></text>
	<text transform="matrix(1 0 0 1 606.4766 310.9788)"><tspan x="0" y="0" class="st9 st4 st10">1 ETH </tspan><tspan x="13.6" y="15" class="st9 st4 st10">= </tspan><tspan x="-19.6" y="30" class="st9 st4 st10">20,000 OBR</tspan></text>
	<text transform="matrix(1 0 0 1 772.4762 310.9788)"><tspan x="0" y="0" class="st9 st4 st10">1 ETH </tspan><tspan x="13.6" y="15" class="st9 st4 st10">= </tspan><tspan x="-19.6" y="30" class="st9 st4 st10">20,000 OBR</tspan></text>
	<text transform="matrix(1 0 0 1 939.8103 310.9788)"><tspan x="0" y="0" class="st9 st4 st10">1 ETH </tspan><tspan x="13.6" y="15" class="st9 st4 st10">= </tspan><tspan x="-19.6" y="30" class="st9 st4 st10">20,000 OBR</tspan></text>
	<text transform="matrix(1 0 0 1 1112.4763 310.9788)"><tspan x="0" y="0" class="st9 st4 st10">1 ETH </tspan><tspan x="13.6" y="15" class="st9 st4 st10">= </tspan><tspan x="-19.6" y="30" class="st9 st4 st10">20,000 OBR</tspan></text>
	<text transform="matrix(1 0 0 1 1278.4766 310.9788)"><tspan x="0" y="0" class="st9 st4 st10">1 ETH </tspan><tspan x="13.6" y="15" class="st9 st4 st10">= </tspan><tspan x="-19.6" y="30" class="st9 st4 st10">20,000 OBR</tspan></text>
	<text transform="matrix(1 0 0 1 1445.8096 310.9788)"><tspan x="0" y="0" class="st9 st4 st10">1 ETH </tspan><tspan x="13.6" y="15" class="st9 st4 st10">= </tspan><tspan x="-19.6" y="30" class="st9 st4 st10">20,000 OBR</tspan></text>
</g>
</svg>
