<?xml version="1.0" encoding="utf-8"?>
<!-- Generator: Adobe Illustrator 20.0.0, SVG Export Plug-In . SVG Version: 6.00 Build 0)  -->
<svg version="1.1" id="Layer_1" xmlns="http://www.w3.org/2000/svg" xmlns:xlink="http://www.w3.org/1999/xlink" x="0px" y="0px"
	 viewBox="0 0 1600 800" style="enable-background:new 0 0 1600 800;" xml:space="preserve">
<style type="text/css">
	.st0{fill:#1B71AA;}
	.st1{font-family:proxima-nova,sans-serif;}
	.st2{font-size:90.8032px;}
	.st3{font-size:40px;}
	.st4{fill:#52C7E1;}
	.st5{fill:#9930FF;}
	.st6{fill:#568CFF;}
	.st7{fill:#D142FF;}
	.st8{fill:#E19DFF;}
	.st9{fill:#A647EA;}
	.st10{font-size:38.6871px;}
</style>
<g>
	<text transform="matrix(1 0 0 1 192.1792 103.1328)" class="st0 st1 st2">50%</text>
</g>
<g>
	<text transform="matrix(1 0 0 1 155.5435 163.1426)" class="st0 st1 st3">Token for ICO</text>
</g>
<g>
	<text transform="matrix(1 0 0 1 199.6501 386.8811)" class="st4 st1 st2">13%</text>
</g>
<g>
	<text transform="matrix(1 0 0 1 229.479 444.9954)" class="st4 st1 st3">Team</text>
</g>
<g>
	<text transform="matrix(1 0 0 1 1268.8367 109.2471)" class="st5 st1 st2">10%</text>
</g>
<g>
	<text transform="matrix(1 0 0 1 1272.7217 167.3164)" class="st5 st1 st3">Founder</text>
</g>
<g>
	<text transform="matrix(1 0 0 1 200.2041 666.8171)" class="st6 st1 st2">12%</text>
</g>
<g>
	<text transform="matrix(1 0 0 1 115.7185 726.8269)"><tspan x="0" y="0" class="st6 st1 st3">Angel investors &amp;</tspan><tspan x="88.2" y="48" class="st6 st1 st3"> Advisor</tspan></text>
</g>
<g>
	<text transform="matrix(1 0 0 1 1268.8367 392.9946)" class="st7 st1 st2">10%</text>
</g>
<g>
	<text transform="matrix(1 0 0 1 1224.5085 451.1089)"><tspan x="0" y="0" class="st7 st1 st3">Early Obirum </tspan><tspan x="67" y="48" class="st7 st1 st3">Wallet</tspan></text>
</g>
<g>
	<text transform="matrix(1 0 0 1 1291.094 667.8098)" class="st8 st1 st2">5%</text>
</g>
<g>
	<text transform="matrix(1 0 0 1 1246.0613 725.9241)" class="st8 st1 st3">ICO Bounty</text>
</g>
<g>
	<text transform="matrix(1 0 0 1 739.5703 388.2817)"><tspan x="0" y="0" class="st9 st1 st10">TOKEN</tspan><tspan x="-66.7" y="46.4" class="st9 st1 st10">DISTRIBUTION</tspan></text>
	<path class="st4" d="M921.4,514c-30.4,32.3-73.6,52.6-121.4,52.6v130.3c85.3,0,162.3-36,216.4-93.7L921.4,514L921.4,514z"/>
	<path class="st0" d="M633.4,400c0-92,74.6-166.6,166.6-166.6V103.1C636,103.1,503.1,236,503.1,400S636,696.9,800,696.9V566.6
		C708,566.6,633.4,492,633.4,400z"/>
	<path class="st6" d="M1096.9,401l-130.3-0.5c-0.2,43.9-17.3,83.8-45.1,113.5l95,89.2l0,0C1066.1,550.3,1096.6,479.3,1096.9,401z"/>
	<path class="st5" d="M963.7,368.8c1.9,10.1,2.9,20.6,2.9,31.2c0,0.2,0,0.4,0,0.6l130.3,0.5c0-0.3,0-0.7,0-1c0-19-1.8-37.6-5.2-55.6
		c-8.2-43.4-25.9-83.5-50.9-118l-105.7,76.2C949.1,321.9,959,344.4,963.7,368.8z"/>
	<path class="st7" d="M897.9,265.2c14.3,10.4,26.8,23,37.2,37.3l105.7-76.2c-18.4-25.5-40.8-48-66.3-66.5
		c-24.7-17.9-52.2-32.2-81.8-41.9L852,241.7C868.6,247.2,884.1,255.1,897.9,265.2z"/>
	<path class="st8" d="M852,241.7l40.7-123.8c-29.2-9.6-60.4-14.8-92.7-14.8v130.3C818.2,233.4,835.7,236.3,852,241.7z"/>
</g>
</svg>
