<?xml version="1.0" encoding="utf-8"?>
<!-- Generator: Adobe Illustrator 20.0.0, SVG Export Plug-In . SVG Version: 6.00 Build 0)  -->
<svg version="1.1" id="Layer_1" xmlns="http://www.w3.org/2000/svg" xmlns:xlink="http://www.w3.org/1999/xlink" x="0px" y="0px"
	 viewBox="0 0 1600 800" style="enable-background:new 0 0 1600 800;" xml:space="preserve">
<style type="text/css">
	.st0{fill:#6415B7;}
	.st1{font-family:proxima-nova,sans-serif;}
	.st2{font-size:90.8032px;}
	.st3{font-size:40px;}
	.st4{fill:#A85AE0;}
	.st5{fill:#F185FF;}
	.st6{fill:#A647EA;}
	.st7{font-size:38.6871px;}
</style>
<g>
	<text transform="matrix(1 0 0 1 168.3286 407.9961)" class="st0 st1 st2">55%</text>
</g>
<g>
	<text transform="matrix(1 0 0 1 112.4849 468.0059)" class="st0 st1 st3">Marketing &amp; PR</text>
</g>
<g>
	<text transform="matrix(1 0 0 1 1250.469 545.7551)" class="st4 st1 st2">30%</text>
</g>
<g>
	<text transform="matrix(1 0 0 1 1244.2573 603.8694)"><tspan x="0" y="0" class="st4 st1 st3">Operate &amp;</tspan><tspan x="-31.2" y="48" class="st4 st1 st3">Development</tspan></text>
</g>
<g>
	<text transform="matrix(1 0 0 1 1256.8757 219.1206)" class="st5 st1 st2">15%</text>
</g>
<g>
	<text transform="matrix(1 0 0 1 1262.0024 277.1899)" class="st5 st1 st3">Reserve</text>
</g>
<g>
	<g>
		<text transform="matrix(1 0 0 1 669.7146 411.4949)" class="st6 st1 st7">USE OF FUNDS</text>
	</g>
	<path class="st5" d="M852,241.7c16.6,5.5,32,13.4,45.9,23.5c14.1,10.3,26.6,22.7,36.8,36.9l105.4-76.6
		c-18.3-25.2-40.5-47.4-65.7-65.7c-24.7-17.9-52.2-32.2-81.8-41.9c-29.2-9.6-60.4-14.8-92.7-14.8v130.3
		C818.2,233.4,835.7,236.3,852,241.7z"/>
	<path class="st4" d="M1091.7,344.4c-8.2-43.4-25.9-83.5-50.9-118c-0.2-0.3-0.4-0.6-0.6-0.8l-105.4,76.6c0.1,0.2,0.2,0.3,0.3,0.5
		c14,19.4,23.9,41.9,28.6,66.2c1.9,10.1,2.9,20.6,2.9,31.2c0,0.2,0,0.4,0,0.6c-0.2,43.9-17.3,83.8-45.1,113.5
		c-19,20.2-43,35.7-69.9,44.4l40.3,123.9c48.1-15.6,90.8-43.2,124.6-79.2c49.7-52.9,80.2-124,80.5-202.2c0-0.3,0-0.7,0-1
		C1096.9,381,1095.1,362.4,1091.7,344.4z"/>
	<path class="st0" d="M800,566.6c-92,0-166.6-74.6-166.6-166.6c0-92,74.6-166.6,166.6-166.6V103.1C636,103.1,503.1,236,503.1,400
		S636,696.9,800,696.9c32,0,62.9-5.1,91.8-14.5l-40.3-123.9C835.3,563.7,818,566.6,800,566.6z"/>
</g>
</svg>
